<?xml version="1.0" encoding="UTF-8" standalone="no"?>
<!-- Created with Inkscape (http://www.inkscape.org/) -->

<svg
   width="40.258511mm"
   height="12.628851mm"
   viewBox="0 0 40.258511 12.628851"
   version="1.1"
   id="svg1"
   xmlns="http://www.w3.org/2000/svg"
   xmlns:svg="http://www.w3.org/2000/svg">
  <defs
     id="defs1" />
  <g
     id="layer1"
     transform="translate(-0.24505844,-0.29041575)">
    <path
       id="path1"
       d="m 14.90166,0.47441293 c -2.89851,0.0754 -7.4130953,0.17939 -10.1409493,0.23363 -2.082006,0.0413 -2.543175,0.0659 -2.649802,0.14076 -0.227806,0.15927997 3.930121,0.26907997 8.4968283,0.22436997 3.721365,-0.0365 14.590183,-0.0355 19.805914,0.002 3.42688,0.0243 8.48201,-0.0574 8.56324,-0.13863997 0.11351,-0.11351 -0.63659,-0.16881 -3.02974,-0.22278 -1.46341,-0.0331 -3.06917,-0.0743 -3.56791,-0.0918 -0.499004,-0.0172 -2.145506,-0.0468 -3.658923,-0.0656 -1.513417,-0.0185 -3.377671,-0.0595 -4.142581,-0.091 -1.597554,-0.0654 -7.005637,-0.0603 -9.676077,0.009 m 1.390915,2.20874997 c -2.732617,0.37517 -3.739621,3.61817 -1.647032,5.3025098 1.236134,0.9951 3.259667,0.83661 4.272492,-0.33443 0.916252,-1.0591298 1.03505,-2.3365398 0.336815,-3.6163298 -0.452173,-0.82894 -1.913467,-1.49569 -2.962275,-1.35175 m -10.7225033,0.21642 c -0.11483,0.11483 -0.103453,5.5718698 0.01191,5.6673798 0.0553,0.0458 0.300831,0.064 0.710671,0.0529 l 0.626004,-0.0175 0.03016,-1.4766398 c 0.0381,-1.85975 0.02672,-1.85314 0.867569,-0.50165 0.17145,0.27544 0.35269,0.5643598 0.402431,0.6416198 0.05001,0.0775 0.199761,0.32041 0.332846,0.53975 0.3640667,0.60087 0.3029477,0.63844 1.1437937,-0.7006198 0.7154326,-1.13956 1.0220846,-1.56157 1.0869076,-1.49675 0.04471,0.0447 0.06668,0.53631 0.06694,1.50019 l 2.64e-4,1.4337798 h 0.725752 0.725752 l 0.01587,-2.7820898 c 0.01852,-3.25544 0.106892,-2.93291 -0.80301,-2.93291 -0.559065,0 -0.623623,0.0119 -0.735012,0.13599 -0.157692,0.17569 -0.9239246,1.3515 -1.5017746,2.30479 -0.356659,0.58896 -0.389732,0.57388 -1.0249957,-0.46037 -1.339057,-2.18017 -1.141942,-1.98041 -1.956065,-1.98041 -0.427566,0 -0.678656,0.0249 -0.726016,0.0725 m 19.2920923,0.0654 c -0.07329,0.0781 -0.133085,0.16748 -0.132821,0.19843 5.29e-4,0.0312 -0.125412,0.35613 -0.2794,0.72205 -0.153987,0.36566 -0.319352,0.76041 -0.367506,0.87683 -0.04815,0.11642 -0.11139,0.26617 -0.140494,0.33258 -0.254794,0.5805 -0.301625,0.69506 -0.301889,0.7374 -2.65e-4,0.027 -0.06615,0.13044 -0.146844,0.23018 l -0.146315,0.18151 -0.216164,-0.47202 c -0.118798,-0.25955 -0.216165,-0.49556 -0.216165,-0.5244 0,-0.0286 -0.0381,-0.12912 -0.08493,-0.22331 -0.04683,-0.0942 -0.113506,-0.23918 -0.147902,-0.32253 -0.07726,-0.18547 -0.299244,-0.71252 -0.369888,-0.87683 -0.02858,-0.0664 -0.138112,-0.30453 -0.243681,-0.52916 l -0.191823,-0.40826 h -0.750887 c -0.760413,0 -0.80989,0.0164 -0.692415,0.22755 0.06085,0.1098 0.181769,0.38285 0.528373,1.1938 0.113771,0.2659 0.257704,0.59266 0.319881,0.72548 0.249502,0.53473 0.484188,1.06019 0.484188,1.08453 0,0.014 0.0926,0.2249 0.205316,0.46831 0.60034,1.2953998 0.82894,1.7822398 0.875242,1.8642598 0.03757,0.0664 0.182563,0.0953 0.543454,0.10821 l 0.492125,0.0175 0.155046,-0.35004 c 0.0852,-0.19262 0.178858,-0.40455 0.208492,-0.47122 0.235214,-0.53129 0.377825,-0.8604298 0.576527,-1.3303298 0.126471,-0.29951 0.249502,-0.5715 0.273579,-0.60484 0.02408,-0.0333 0.159015,-0.33258 0.300037,-0.66516 0.221457,-0.52281 0.366713,-0.85751 0.60378,-1.39118 0.420952,-0.94773 0.438943,-0.90249 -0.366448,-0.92419 -0.601398,-0.0159 -0.644525,-0.009 -0.770467,0.12489 m 2.642129,-0.005 c -0.03149,0.059 -0.04842,1.27583 -0.03942,2.84242 l 0.01561,2.7394998 0.680508,0.0169 c 0.520965,0.0132 0.681037,-10e-4 0.683154,-0.0603 0.01852,-0.52626 -0.0063,-5.5745098 -0.02778,-5.5959398 -0.09208,-0.0918 -1.259681,-0.0407 -1.312069,0.0574 m 3.05779,-0.0571 c -0.01587,0.0413 -0.0217,1.34065 -0.01296,2.8874 l 0.01587,2.8119898 2.376223,0.0159 c 2.822834,0.0188 2.613024,0.0706 2.613024,-0.64585 0,-0.66304 0.17013,-0.60775 -1.87775,-0.60881 -1.810541,-10e-4 -1.751009,0.0146 -1.751009,-0.4598398 0,-0.56515 0.0042,-0.56674 1.481669,-0.5842 l 1.27,-0.0153 v -0.54424 -0.54425 l -1.27582,-0.0302 c -1.470293,-0.0349 -1.475849,-0.0368 -1.475849,-0.4953 0,-0.56409 -0.104775,-0.53287 1.784079,-0.53287 1.57824,0 1.66185,-0.006 1.72165,-0.11694 0.0717,-0.13415 0.0833,-0.966 0.0151,-1.07368 -0.0683,-0.10689 -4.843726,-0.16933 -4.884207,-0.0638 m -13.221494,1.37028 c 0.919692,0.46911 1.140619,1.62243 0.461963,2.41115 -1.299634,1.5107698 -3.668713,-0.38576 -2.460361,-1.96956 0.433652,-0.56885 1.351492,-0.77179 1.998398,-0.44159 M 8.5011467,10.063763 c -0.07646,0.0765 -0.0463,2.46962 0.03228,2.54794 0.03995,0.0399 0.2032,0.0728 0.3627437,0.0728 h 0.290512 v -0.5932 c 0,-0.76014 0.08281,-0.9181 0.320675,-0.61012 0.7657036,0.99245 0.6506096,0.96017 1.0929936,0.30797 0.502444,-0.74057 0.570971,-0.70723 0.597164,0.29051 l 0.01508,0.57441 h 0.302418 0.302155 l 0.0164,-1.31815 0.0164,-1.31816 -0.377031,0.018 -0.376767,0.018 -0.312208,0.40455 c -0.17145,0.22251 -0.365125,0.47757 -0.430213,0.56673 -0.162719,0.22331 -0.297127,0.16405 -0.5908136,-0.26088 -0.455084,-0.65854 -0.55589,-0.74056 -0.90858,-0.74056 -0.1719787,0 -0.3309927,0.018 -0.3532177,0.0402 m 5.8195093,0.0656 c -0.12356,0.15293 -0.447146,0.88 -0.880004,1.9767 -0.210344,0.53367 -0.198967,0.57838 0.150019,0.57838 0.233097,0 0.320675,-0.0304 0.433916,-0.15134 0.132556,-0.14102 0.18124,-0.15108 0.729456,-0.15108 0.559594,0 0.591873,0.007 0.68633,0.15108 0.08546,0.13044 0.143933,0.15134 0.426508,0.15134 0.37809,0 0.43815,-0.0556 0.311415,-0.28734 -0.05027,-0.0915 -0.238125,-0.52017 -0.417778,-0.9525 -0.179652,-0.43233 -0.391847,-0.92842 -0.471752,-1.10252 l -0.145256,-0.31617 -0.368564,-10e-4 c -0.2794,-7.9e-4 -0.389467,0.0246 -0.45429,0.10478 m 3.030273,-0.018 c 0,0.0484 0.07064,0.19129 0.157162,0.3175 0.08652,0.1262 0.181769,0.2839 0.211402,0.35057 0.06244,0.13864 0.189971,0.34846 0.239184,0.39291 0.200025,0.18097 0.299244,0.499 0.299244,0.95858 0,0.55245 0.0291,0.58261 0.519906,0.5424 l 0.236008,-0.0193 0.01773,-0.50853 0.01773,-0.50853 0.360363,-0.53869 c 0.198173,-0.29607 0.360362,-0.55218 0.360362,-0.56885 0,-0.0167 0.06773,-0.11933 0.150813,-0.22807 0.186266,-0.24421 0.155575,-0.27781 -0.252148,-0.27781 h -0.322792 l -0.265906,0.41433 c -0.362479,0.56542 -0.411692,0.57362 -0.699029,0.11377 -0.3302,-0.52837 -0.3302,-0.5281 -0.699823,-0.5281 -0.248708,0 -0.3302,0.0217 -0.3302,0.0878 m 4.080139,-0.014 c -0.01693,0.0444 -0.02355,0.63765 -0.01455,1.31869 l 0.0164,1.23798 0.2921,0.0188 c 0.396346,0.0251 0.447146,-0.0312 0.415925,-0.46196 -0.04154,-0.57336 0.01138,-0.6231 0.641086,-0.6022 l 0.525727,0.0175 0.03016,0.51408 0.03043,0.51382 0.357187,0.0185 c 0.457729,0.0236 0.4318,0.11007 0.411427,-1.37318 l -0.01746,-1.27582 h -0.318294 c -0.407723,0 -0.463286,0.0622 -0.463286,0.51964 0,0.43947 -0.01164,0.4482 -0.594518,0.44688 -0.541338,-0.001 -0.578644,-0.0331 -0.614892,-0.52599 l -0.03016,-0.41037 -0.318294,-0.0183 c -0.222515,-0.013 -0.327554,0.006 -0.348986,0.0619 m 4.352925,0.003 c -0.01614,0.0426 -0.02223,0.63447 -0.01323,1.31551 l 0.0164,1.23798 1.084263,0.0167 c 1.125802,0.0172 1.180571,0.006 1.182687,-0.23892 0.0024,-0.24024 -0.163777,-0.29845 -0.8128,-0.28495 -0.696383,0.0145 -0.75856,-0.006 -0.75856,-0.24474 0,-0.25056 0.101865,-0.29898 0.668337,-0.31883 l 0.510911,-0.0177 v -0.24183 -0.24183 l -0.510911,-0.018 c -0.563297,-0.0196 -0.683418,-0.0762 -0.656166,-0.30957 l 0.01799,-0.15636 0.70485,-0.0169 c 0.786342,-0.019 0.8763,-0.0606 0.807773,-0.37359 l -0.04048,-0.18388 h -1.085585 c -0.824971,0 -1.092994,0.0185 -1.115484,0.077 m 3.812911,-0.0161 c -0.02064,0.0336 -0.04286,0.61992 -0.04895,1.30307 -0.0127,1.40097 -0.03969,1.32848 0.478366,1.28588 l 0.236273,-0.0193 0.0172,-0.62256 c 0.01349,-0.48657 0.03704,-0.63024 0.10795,-0.65749 0.08996,-0.0344 0.328348,0.13308 0.328348,0.23072 0,0.0484 0.08546,0.15927 0.424392,0.55086 l 0.152135,0.17568 0.350044,-0.48868 c 0.4953,-0.69189 0.584994,-0.67654 0.586317,0.10107 0.0011,0.72337 0.01746,0.75353 0.397933,0.72945 l 0.296598,-0.0191 v -1.30016 -1.30016 l -0.340519,-0.018 c -0.397933,-0.0209 -0.383116,-0.032 -0.902758,0.68315 -0.428625,0.58976 -0.428096,0.58976 -0.825765,0.009 -0.438679,-0.64082 -0.519641,-0.70458 -0.893233,-0.70458 -0.179652,0 -0.343429,0.0272 -0.364331,0.0609 m -14.662679,1.15332 c 0.214312,0.42016 -0.09472,0.73739 -0.475986,0.48815 -0.15531,-0.10133 0.105304,-0.73474 0.302419,-0.73474 0.02619,0 0.104246,0.11086 0.173567,0.24659 m -9.3763033,0.20849 c -1.488017,0.11271 -1.753394,0.2376 -0.624682,0.29342 0.469371,0.0233 0.944828,0.0685 1.056217,0.10054 0.11139,0.0317 0.359304,0.0579 0.550863,0.0579 h 0.348191 v -0.23548 c 0,-0.22939 -0.0807,-0.32173 -0.261937,-0.3003 -0.03889,0.005 -0.519642,0.0423 -1.068652,0.0839 m 28.9906653,-0.003 c -0.14446,0.37677 0.15981,0.54478 0.72972,0.4027 0.1352,-0.0336 0.62653,-0.0812 1.0922,-0.10584 1.26497,-0.0669 0.74586,-0.20082 -1.34858,-0.34819 -0.33893,-0.0238 -0.449,-0.0119 -0.47334,0.0513"
       stroke="none"
       fill="#e5e6e6"
       fill-rule="evenodd"
       style="stroke-width:0.264583" />
    <path
       id="path2"
       d="m 14.508489,0.30244293 c -0.01667,0.0161 -0.858573,0.0471 -1.870869,0.0685 -1.012295,0.0214 -1.8542,0.0529 -1.871133,0.0696 -0.01693,0.0169 1.233223,0.01 2.77786,-0.0161 3.379523,-0.0564 9.488752,-0.0606 13.180219,-0.009 1.481402,0.0206 2.283354,0.0161 1.784085,-0.01 -1.028435,-0.0532 -13.953595,-0.14843 -14.000162,-0.10318 m -9.2831703,0.23362 c -1.720056,0.0741 -1.763977,0.10795 -0.09075,0.0696 0.814917,-0.0185 2.393421,-0.0519 3.507582,-0.0741 l 2.0261783,-0.0405 -2.1470933,-0.002 c -1.180835,-0.001 -2.663825,0.0198 -3.295915,0.0471 m 26.4281703,-0.009 c 4.59581,0.0968 5.45253,0.10769 4.74742,0.0593 -0.38259,-0.0265 -2.09709,-0.0609 -3.810001,-0.0765 -2.665677,-0.0246 -2.800879,-0.022 -0.937419,0.0172 m -30.88534025,0.1778 c -0.439209,0.0389 -0.610659,0.13256 -0.480748,0.26273 0.05503,0.0548 0.402431,0.0775 1.26708895,0.0825 l 1.191419,0.007 -0.947737,-0.037 c -1.43721695,-0.0566 -1.27238195,-0.23573985 0.28231,-0.30744985 l 0.907256,-0.0418 -0.907256,-7.9e-4 c -0.49874,-5.3e-4 -1.08955395,0.0153 -1.31233295,0.0349 m 37.80975025,5.3e-4 c 1.16258,0.0392 1.60787,0.11033 1.48193,0.2368 -0.022,0.0222 -0.39846,0.0561 -0.83661,0.0749 l -0.7964,0.0344 0.84667,0.004 c 0.95356,0.004 1.19962,-0.0299 1.22687,-0.17118995 0.0323,-0.16721 -0.15505,-0.19023 -1.68037,-0.20558 l -1.48166,-0.0151 1.23957,0.0421 M 4.1368257,1.1494429 c 1.256506,0.0728 7.2972073,0.0926 13.6977423,0.0452 2.245254,-0.0167 6.858,-0.009 10.250752,0.0172 5.083701,0.0392 6.509011,0.0318 8.103921,-0.0421 l 1.93516,-0.0897 -1.84441,0.0423 c -1.01468,0.023 -3.273421,0.0392 -5.019671,0.0357 -7.91501,-0.0161 -19.37676,-0.0199 -21.7715036,-0.007 -1.4467407,0.008 -3.5014957,-0.005 -4.5659137,-0.0272 -1.806311,-0.0381 -1.858698,-0.0362 -0.786077,0.0259 m 11.8533323,1.44039 c -1.387211,0.22648 -2.5019,1.47902 -2.59424,2.91491 l -0.03201,0.49795 0.08043,-0.51409 c 0.272521,-1.74545 1.302279,-2.72891 3.031067,-2.8948 0.459316,-0.0442 0.486833,-0.0524 0.179916,-0.0529 -0.199496,-2.6e-4 -0.499004,0.0217 -0.665162,0.0489 m 1.27,0.0577 c 3.329516,0.66834 3.320521,5.3350598 -0.01164,6.0240298 -0.441325,0.0913 -0.664369,0.0907 -1.379273,-0.004 l -0.242094,-0.032 0.242094,0.0849 c 0.593725,0.20849 1.683544,0.0571 2.355586,-0.32729 1.948127,-1.11469 2.176991,-3.9018098 0.425979,-5.1916498 -0.475192,-0.35005 -1.095375,-0.61834 -1.407848,-0.60934 l -0.224631,0.007 0.241829,0.0487 m 9.025996,0.14314 c 0.139435,0.0619 0.18362,0.24236 0.07567,0.30903 -0.03334,0.0206 -0.06059,0.0767 -0.06059,0.12488 0,0.0482 -0.06959,0.23019 -0.154517,0.40455 -0.08493,0.17463 -0.306123,0.67099 -0.491331,1.10358 -0.185208,0.43233 -0.429419,0.98716 -0.542661,1.23269 -0.113241,0.2458 -0.192087,0.46064 -0.175418,0.47731 0.01667,0.0169 0.08731,-0.10266 0.156898,-0.26538 0.06932,-0.16245 0.182827,-0.41804 0.251883,-0.56779 0.06906,-0.14976 0.160073,-0.35375 0.201877,-0.4535 0.07567,-0.18044 0.128058,-0.3003 0.410633,-0.93742 0.08123,-0.18309 0.205846,-0.46884 0.277548,-0.635 0.07144,-0.16642 0.156104,-0.34978 0.188119,-0.40745 0.08863,-0.15928 0.0717,-0.40905 -0.02725,-0.40905 -0.0471,0 -0.121973,-0.008 -0.166423,-0.0183 -0.04418,-0.0101 -0.01932,0.009 0.05556,0.0418 m -20.9333033,0.0722 c -0.08599,0.22357 -0.03995,5.6827198 0.04895,5.8041598 0.07461,0.10213 0.176212,0.12012 0.78105,0.13759 1.001447,0.0291 0.947472,0.11827 0.947472,-1.56237 0,-0.7315698 0.02037,-1.3300598 0.04551,-1.3292598 0.03731,7.9e-4 0.319616,0.43894 0.759354,1.17818 0.03969,0.0664 0.08731,0.1344098 0.106098,0.1510798 0.01852,0.0167 0.1397,0.20717 0.268816,0.42334 0.129382,0.21616 0.256911,0.40216 0.283634,0.41327 0.02672,0.0111 0.04842,0.0582 0.04842,0.10451 0,0.14473 0.2868077,0.29634 0.3934347,0.2077 0.04974,-0.0413 0.09049,-0.10001 0.09049,-0.1307 0,-0.0304 0.02831,-0.0884 0.06297,-0.12859 0.03466,-0.0402 0.220927,-0.31803 0.413809,-0.61727 C 10.359832,6.3408629 10.4273,6.2334429 10.495034,6.0985029 c 0.02355,-0.0474 0.0926,-0.13573 0.153458,-0.19659 0.06085,-0.0609 0.110331,-0.14128 0.110331,-0.17912 0,-0.0743 -0.333639,0.32385 -0.437621,0.52229 -0.236802,0.45191 -1.3430246,2.0864998 -1.4120806,2.0864998 -0.08017,0 -0.6926787,-0.88794 -1.1721037,-1.6991498 -0.720725,-1.21973 -0.727604,-1.21497 -0.727604,0.49027 0,0.7590898 -0.0164,1.4234598 -0.03678,1.4758498 -0.04789,0.12488 -1.361017,0.14287 -1.461823,0.0201 -0.03995,-0.0487 -0.06668,-1.05569 -0.07488,-2.8270798 -0.01508,-3.2295 -0.0254,-2.94772 0.106891,-2.98212 0.08361,-0.022 0.07858,-0.0294 -0.02381,-0.0347 -0.07117,-0.004 -0.14605,0.036 -0.166158,0.0886 m 1.658143,-0.0566 c 0.0508,0.0138 0.162984,0.1397 0.249238,0.28019 0.998802,1.62269 1.508125,2.41406 1.5935847,2.47677 0.107156,0.0786 0.129911,0.0548 0.456671,-0.48287 0.608013,-0.99959 1.4358936,-2.23864 1.5176496,-2.27118 0.06138,-0.0243 0.05794,-0.0336 -0.01349,-0.0373 -0.08811,-0.005 -0.308239,0.31089 -1.4750516,2.11191 -0.183091,0.28284 -0.333375,0.54795 -0.333639,0.58975 -0.0013,0.12885 -0.114036,0.0834 -0.2248957,-0.0907 -0.05821,-0.0915 -0.123031,-0.17992 -0.144463,-0.19659 -0.02117,-0.0167 -0.05768,-0.0915 -0.08096,-0.16642 -0.02328,-0.0749 -0.06773,-0.13599 -0.09895,-0.13599 -0.03096,0 -0.05636,-0.0302 -0.05636,-0.0669 0,-0.0365 -0.08149,-0.18759 -0.181504,-0.3355 -0.09975,-0.1479 -0.181239,-0.2794 -0.181239,-0.29236 0,-0.0127 -0.115623,-0.19579 -0.257175,-0.40666 -0.141288,-0.21088 -0.309034,-0.47599 -0.372534,-0.58897 -0.165893,-0.29501 -0.291041,-0.4273 -0.396875,-0.4191 -0.08255,0.006 -0.08255,0.01 0,0.032 m 5.2749973,0.0222 c 0.173038,0.10716 0.16219,5.7099798 -0.01111,5.8025798 -0.213784,0.11456 -1.378215,0.0799 -1.454679,-0.0431 -0.06006,-0.0968 -0.06429,-0.0955 -0.04762,0.0151 0.02355,0.15717 1.4859,0.2212 1.611047,0.0704 0.143405,-0.17277 0.0635,-5.8705698 -0.08255,-5.8925298 -0.110595,-0.0167 -0.111918,-0.0124 -0.01508,0.0476 m 7.967663,0.0992 c 0,0.16775 0.289983,0.83979 0.340518,0.78925 0.01587,-0.0161 -0.04048,-0.17356 -0.125412,-0.34978 -0.191294,-0.39634 -0.195527,-0.52334 -0.01852,-0.55747 0.116681,-0.0225 0.112448,-0.0272 -0.03016,-0.0344 -0.141816,-0.007 -0.166422,0.0156 -0.166422,0.1524 m 1.644385,-0.031 c 0.09816,0.0905 0.39079,0.69797 0.804069,1.66952 0.357452,0.83978 0.671512,1.52691 0.697706,1.52691 0.02646,0 0.133879,-0.21088 0.239183,-0.46858 0.188648,-0.46196 0.320675,-0.77576 0.426244,-1.01309 0.02963,-0.0664 0.192881,-0.4609 0.362479,-0.87683 0.169598,-0.41566 0.364331,-0.80354 0.432594,-0.86175 0.09181,-0.0786 0.100542,-0.10583 0.03387,-0.10583 -0.124355,0 -0.17489,0.0799 -0.402167,0.635 -0.109008,0.26617 -0.236538,0.55615 -0.283104,0.64426 -0.04657,0.0884 -0.08467,0.18838 -0.08467,0.22251 0,0.0341 -0.08176,0.23866 -0.181504,0.45403 -0.09975,0.21563 -0.181504,0.40613 -0.181504,0.42333 0,0.0175 -0.08467,0.21432 -0.188119,0.43789 l -0.188119,0.40666 -0.213254,-0.50826 c -0.117475,-0.2794 -0.291306,-0.67813 -0.386556,-0.88609 -0.09499,-0.20796 -0.173038,-0.40111 -0.173038,-0.42889 0,-0.0458 -0.07038,-0.1995 -0.503766,-1.09749 -0.07541,-0.15664 -0.180711,-0.28125 -0.247915,-0.29395 -0.09948,-0.0188 -0.09393,-10e-4 0.03757,0.12065 m 5.455973,-0.0598 c -0.08017,0.12938 -0.109538,5.6377398 -0.03096,5.7845798 0.119591,0.22305 1.554956,0.20347 1.640681,-0.0225 0.06482,-0.1704 0.08414,-5.3279198 0.02117,-5.6430398 -0.02884,-0.14393 -0.06853,-0.18732 -0.166158,-0.18177 -0.0926,0.005 -0.100806,0.0143 -0.0291,0.0333 0.163248,0.0434 0.170921,0.17807 0.171715,2.99403 7.93e-4,2.3764798 -0.01058,2.7135598 -0.09419,2.7971698 -0.142081,0.14208 -1.305454,0.13705 -1.448858,-0.006 -0.149755,-0.14976 -0.07435,-5.6305998 0.07911,-5.7499298 0.0889,-0.0693 0.08863,-0.0757 -0.0016,-0.0757 -0.0545,0 -0.118268,0.0315 -0.141816,0.0699 m 3.039533,-0.0296 c -0.02223,0.0222 -0.04022,1.34143 -0.04022,2.93184 v 2.8913698 l 0.143405,0.0942 c 0.125148,0.0818 0.4572,0.0918 2.575189,0.077 2.856437,-0.0201 2.603227,0.0579 2.603227,-0.80354 0,-0.81386 0.14764,-0.75221 -1.84467,-0.77047 l -1.69333,-0.0156 v -0.3325798 -0.33258 l 1.27,-0.0153 c 1.53749,-0.0183 1.48166,0.0111 1.48166,-0.77761 0,-0.77258 0.0474,-0.7493 -1.51183,-0.7493 h -1.269992 v -0.36274 -0.36301 l 1.678252,-8e-4 c 0.92313,-5.2e-4 1.71317,-0.0233 1.75577,-0.0503 0.14499,-0.0921 0.0735,-1.42451 -0.0775,-1.44727 -0.1106,-0.0164 -0.11192,-0.0124 -0.0151,0.0479 0.13705,0.0849 0.15848,1.21047 0.0251,1.32107 -0.0534,0.0445 -0.63897,0.0725 -1.73858,0.0831 l -1.658135,0.0161 v 0.39317 0.3929 l 1.265235,0.0164 c 1.51077,0.0196 1.42584,-0.0225 1.42584,0.70935 0,0.7321 0.0849,0.68976 -1.42584,0.70934 l -1.265235,0.0164 v 0.39317 0.3931698 l 1.688305,0.0159 c 1.1221,0.0108 1.71529,0.0386 1.769,0.0831 0.14155,0.11748 0.11086,1.18084 -0.0365,1.25942 -0.24659,0.13203 -4.948763,0.0812 -5.021259,-0.0542 -0.123296,-0.23045 -0.08255,-5.6713398 0.04313,-5.7443698 0.08969,-0.0521 0.09128,-0.0619 0.01005,-0.0635 -0.05265,-10e-4 -0.113771,0.0164 -0.135996,0.0384 m -9.772385,1.02579 c -0.0066,0.0971 0.297127,0.76914 0.331787,0.73448 0.01588,-0.0159 -0.05133,-0.20294 -0.149225,-0.41566 -0.09816,-0.21299 -0.180181,-0.3564 -0.182562,-0.31882 m -4.375944,0.38814 c -0.348721,0.0865 -0.55536,0.21246 -0.781314,0.47625 -1.226873,1.43351 0.821795,3.3332198 2.197364,2.03782 1.110456,-1.04563 0.07488,-2.88396 -1.41605,-2.51407 m 1.019704,0.17859 c 1.133211,0.51435 1.002507,2.22647 -0.200025,2.61964 -0.335756,0.1098 -0.715168,0.1341498 -0.767556,0.0492 -0.01799,-0.0288 -0.115623,-0.0693 -0.216958,-0.0894 -0.107157,-0.0214 -0.307446,-0.16008 -0.477838,-0.33047 -1.161256,-1.16125 0.150019,-2.93502 1.662377,-2.24896 m 3.716867,0.26644 c -0.0013,0.0302 0.06244,0.19341 0.141817,0.36274 0.125677,0.26829 0.205845,0.449 0.459052,1.03399 0.02884,0.0667 0.149754,0.32967 0.268816,0.585 0.119063,0.25506 0.216429,0.4931798 0.216429,0.5291598 0,0.0357 0.02699,0.0651 0.0598,0.0651 0.03281,0 -0.01111,-0.1563698 -0.0979,-0.3476598 -0.08678,-0.19129 -0.313002,-0.70141 -0.502972,-1.134 -0.364332,-0.83 -0.541073,-1.18481 -0.545042,-1.09432 m -10.208948,1.36657 c 0,0.11642 0.01244,0.16404 0.02778,0.10583 0.01508,-0.0582 0.01508,-0.15345 0,-0.21166 -0.01534,-0.0582 -0.02778,-0.0106 -0.02778,0.10583 m 2.652977,0.12092 c -0.0093,0.69717 0.910431,1.9383298 1.72085,2.3219798 0.504825,0.23892 0.54319,0.18388 0.04392,-0.0635 -0.802217,-0.3974 -1.434306,-1.18163 -1.673754,-2.0769798 -0.04948,-0.18494 -0.08996,-0.26538 -0.09102,-0.1815 m 11.284744,0.71093 c -0.08811,0.19103 -0.294746,0.6593398 -0.459317,1.0403398 -0.325437,0.75433 -0.350308,0.77788 -0.833702,0.78449 -0.518054,0.007 -0.567267,-0.0339 -0.894556,-0.74533 -0.161925,-0.35216 -0.30824,-0.62706 -0.324909,-0.61039 -0.01667,0.0167 0.02646,0.14578 0.09552,0.28681 0.06906,0.14128 0.208756,0.43709 0.310621,0.65749 0.211402,0.45825 0.240506,0.47625 0.772848,0.47625 0.573881,0 0.665691,-0.0992 1.121039,-1.20968 0.03413,-0.0831 0.09552,-0.23283 0.136261,-0.33258 0.04075,-0.0998 0.123825,-0.2836298 0.184679,-0.4085198 0.06085,-0.12488 0.09737,-0.2405 0.08123,-0.25664 -0.01614,-0.0164 -0.1016,0.12673 -0.189706,0.31776 M 8.4124867,9.9161027 c -0.05212,0.0521 -0.0725,0.4590503 -0.0725,1.4493803 0,1.56713 -0.02249,1.50284 0.5251977,1.50099 0.451909,-0.002 0.472546,-0.0315 0.472017,-0.68316 -7.94e-4,-0.5379 0.0056,-0.56541 0.120915,-0.53684 0.12012,0.0302 0.120385,0.0291 0.005,-0.1016 -0.173302,-0.19605 -0.209815,-0.1008 -0.228865,0.59743 l -0.01746,0.63447 -0.285221,0.0183 c -0.5455707,0.0352 -0.5312837,0.0738 -0.5312837,-1.43881 0,-1.5060003 -0.02619,-1.4340403 0.5122337,-1.4009603 l 0.339989,0.0209 0.394759,0.5233403 c 0.5355156,0.70988 0.4839226,0.70776 0.9895406,0.041 0.470694,-0.6209703 0.635794,-0.7146403 1.048544,-0.5966303 l 0.192352,0.055 0.04551,1.1774003 c 0.06244,1.61263 0.05768,1.63062 -0.431535,1.63062 -0.334962,0 -0.369887,-0.0691 -0.369887,-0.73421 0,-0.81175 -0.0553,-0.82101 -0.576263,-0.0974 -0.355071,0.49345 -0.381529,0.49636 -0.7003516,0.0741 -0.138642,-0.18388 -0.264583,-0.322 -0.2794,-0.30718 -0.03969,0.0397 0.4587866,0.68554 0.5580056,0.72364 0.0934,0.0357 0.381794,-0.26723 0.636323,-0.66834 0.208756,-0.32941 0.240771,-0.2884 0.240771,0.31062 0,0.70935 0.365125,0.98875 0.91096,0.69665 0.175419,-0.0939 0.18124,-2.70299 0.0064,-2.8612103 -0.370681,-0.33549 -0.853545,-0.11826 -1.373187,0.6183403 -0.373063,0.5289 -0.363273,0.52943 -0.7850186,-0.0381 C 9.2649974,9.8576127 8.7178387,9.6107627 8.4125097,9.9160927 m 5.8398823,0.0333 c -0.05133,0.0582 -0.152135,0.2418303 -0.224366,0.4082603 -0.07197,0.16616 -0.155046,0.35666 -0.184679,0.42333 -0.236009,0.53128 -0.364332,0.82868 -0.469636,1.0885 -0.386821,0.95461 -0.377031,0.99536 0.23839,0.99695 0.311944,7.9e-4 0.356658,-0.0161 0.48895,-0.18495 l 0.145521,-0.186 0.548745,0.0196 c 0.301625,0.0109 0.536046,-7.9e-4 0.520436,-0.0257 -0.09472,-0.1524 -1.110192,-0.0436 -1.270265,0.136 -0.166158,0.18627 -0.401637,0.23151 -0.737393,0.14182 -0.156898,-0.0421 -0.153194,-0.20505 0.01323,-0.585 0.0463,-0.10557 0.255058,-0.60007 0.464079,-1.09881 0.451908,-1.07871 0.527314,-1.1795103 0.880798,-1.1795103 0.482335,0 0.536046,0.0463 0.809889,0.6955903 0.148961,0.35295 0.173832,0.40957 0.419365,0.95673 0.102129,0.22675 0.186267,0.43101 0.187325,0.4535 0.0013,0.0228 0.05477,0.15001 0.119062,0.2831 0.143405,0.29686 0.150284,0.42942 0.02514,0.47731 -0.180975,0.0696 -0.60325,0.0365 -0.737394,-0.0574 -0.07408,-0.0519 -0.134408,-0.0664 -0.134408,-0.0323 0,0.1778 0.779462,0.26591 0.983985,0.11139 0.09975,-0.0754 0.01667,-0.36195 -0.328612,-1.134 -0.06747,-0.15108 -0.169334,-0.38814 -0.337873,-0.78608 -0.04948,-0.11641 -0.127265,-0.2839 -0.173302,-0.37227 -0.04604,-0.0884 -0.08387,-0.19288 -0.08387,-0.23257 0,-0.3743803 -0.896938,-0.6193803 -1.163109,-0.3175003 m 2.914386,0.0201 c -0.05239,0.0979 -0.04762,0.1484303 0.02196,0.2267503 0.04921,0.0556 0.282575,0.42175 0.518848,0.81412 l 0.429419,0.71332 0.0011,0.46593 c 0.0011,0.59426 0.02831,0.63315 0.467254,0.6649 0.498475,0.036 0.559859,-0.0362 0.559859,-0.65775 v -0.48075 l 0.40005,-0.6186 c 0.220133,-0.34052 0.452966,-0.69506 0.517789,-0.78793 0.22569,-0.3238503 0.140759,-0.4331203 -0.352425,-0.4534903 -0.454818,-0.0185 -0.528108,0.0241 -0.709083,0.4108903 -0.243946,0.52123 -0.325967,0.54028 -0.567531,0.13177 -0.294217,-0.4968903 -0.381794,-0.5551003 -0.835554,-0.5551003 -0.327555,0 -0.39423,0.0185 -0.451644,0.12594 m 4.18756,-0.0534 c -0.05212,0.0521 -0.0725,0.4569303 -0.0725,1.4393303 0,1.55813 -0.01508,1.51183 0.491596,1.51183 0.481277,0 0.547952,-0.0786 0.530225,-0.62786 l -0.01376,-0.43047 h 0.493977 c 0.620712,0 0.629444,-0.11377 0.01085,-0.13891 -0.542131,-0.022 -0.566208,5.3e-4 -0.553773,0.51409 0.01217,0.50456 -0.02619,0.56753 -0.3683,0.60589 -0.537369,0.0606 -0.53049,0.0791 -0.53049,-1.43298 0,-0.72866 0.02381,-1.33959 0.05265,-1.3573103 0.02911,-0.018 0.207434,-0.0392 0.396611,-0.0471 0.418571,-0.0175 0.455877,0.0267 0.456935,0.5410703 l 0.0011,0.37809 h 0.514085 c 0.451115,0 0.513556,-0.013 0.509323,-0.10583 -0.0029,-0.0632 -0.0172,-0.0754 -0.03545,-0.0304 -0.02037,0.0511 -0.176742,0.0757 -0.478896,0.0757 h -0.448469 v -0.36671 c 0,-0.5429203 -0.04868,-0.6008703 -0.504296,-0.6008703 -0.214048,0 -0.410368,0.0315 -0.451379,0.0725 m 1.982523,0.0196 c -0.04207,0.0508 -0.059,0.1098003 -0.03784,0.1309703 0.02143,0.0214 0.03889,0.007 0.03889,-0.0315 0,-0.0791 0.759619,-0.1026603 0.806715,-0.0254 0.01508,0.0251 0.03704,0.63817 0.04895,1.36287 0.02408,1.48352 0.03942,1.43245 -0.432329,1.43245 -0.389731,0 -0.447411,-0.0579 -0.493713,-0.49477 l -0.03995,-0.3802 0.01296,0.41222 c 0.01535,0.48551 0.05292,0.52308 0.5207,0.52308 0.540544,0 0.515673,0.0738 0.502708,-1.48246 -0.0079,-0.94827 -0.03334,-1.3933003 -0.08308,-1.4530903 -0.101071,-0.12198 -0.741627,-0.11748 -0.844021,0.006 m 2.338917,0.0185 c -0.160338,0.1770003 -0.149754,2.6680603 0.01191,2.8143703 0.197115,0.17859 2.369079,0.1188 2.461948,-0.0675 0.08625,-0.1733 0.02408,-0.57097 -0.09472,-0.60748 -0.07303,-0.0222 -0.07594,-0.0122 -0.01482,0.0526 0.09155,0.0971 0.09843,0.38365 0.01296,0.54372 -0.08149,0.15187 -2.166144,0.18283 -2.289704,0.0336 -0.04842,-0.0582 -0.06429,-0.48128 -0.05292,-1.40599 l 0.0164,-1.3229203 1.144588,-0.0164 c 1.243277,-0.018 1.241425,-0.0185 1.243277,0.3220003 0.0016,0.29554 -0.08017,0.32941 -0.790046,0.32941 -0.491596,0 -0.663046,0.0212 -0.718873,0.0881 -0.129381,0.15611 -0.005,0.21432 0.459052,0.21432 0.595048,0 0.687917,0.0524 0.687917,0.38788 0,0.34872 -0.0672,0.38999 -0.668338,0.41089 -0.495035,0.0172 -0.51091,0.0222 -0.51091,0.16378 0,0.0804 0.03651,0.15849 0.08149,0.1733 0.0635,0.0212 0.0672,8e-4 0.0172,-0.0929 -0.09393,-0.17568 -0.03995,-0.19632 0.512762,-0.19632 0.555625,0 0.68871,-0.0847 0.68871,-0.43894 0,-0.37571 -0.1397,-0.46805 -0.707495,-0.46805 -0.354542,0 -0.50509,-0.0212 -0.489215,-0.0685 0.01535,-0.0463 0.226483,-0.0648 0.646377,-0.0569 0.744008,0.0138 0.852752,-0.0437 0.852752,-0.44926 0,-0.4341803 -0.05556,-0.4535003 -1.310746,-0.4535003 -0.978693,0 -1.099608,0.0111 -1.189566,0.1106 m 3.772429,0.006 c -0.03757,0.0701 -0.06271,0.6297103 -0.06271,1.3948803 0,1.53485 -0.0077,1.51183 0.508793,1.51183 0.503238,0 0.537634,-0.0455 0.524669,-0.69585 -0.01191,-0.61093 0.05371,-0.65538 0.353219,-0.23839 0.108744,0.15134 0.269875,0.3429 0.357981,0.42545 l 0.160338,0.15001 0.151341,-0.1733 c 0.08308,-0.0953 0.192088,-0.23495 0.241829,-0.31009 0.05001,-0.0751 0.151871,-0.22093 0.226748,-0.32411 l 0.136261,-0.18759 v 0.54266 c 0,0.71861 0.06112,0.81121 0.535516,0.81121 0.19103,0 0.379942,-0.0325 0.419894,-0.0725 0.09366,-0.0937 0.102926,-2.66065 0.01005,-2.8342103 -0.09763,-0.1823 -0.961495,-0.12938 -0.966523,0.059 -5.29e-4,0.0196 -0.109008,0.15822 -0.241035,0.30771 -0.132027,0.14975 -0.240242,0.28734 -0.240771,0.30586 -5.29e-4,0.0185 -0.06641,0.12224 -0.146579,0.23071 l -0.145256,0.19712 -0.376238,-0.50271 C 30.372987,9.8592527 30.351026,9.8433727 29.895149,9.8433727 c -0.318029,0 -0.395023,0.0201 -0.446881,0.11695 m -9.353815,0.0349 c 0.03254,0.0849 -0.142875,0.3979403 -0.746389,1.3298003 -0.217488,0.33602 -0.235215,0.39608 -0.239977,0.8165 -0.0069,0.59029 -0.03889,0.635 -0.456936,0.635 -0.418306,0 -0.451379,-0.0463 -0.452702,-0.62759 l -7.93e-4,-0.44609 -0.490273,-0.80433 c -0.55245,-0.9067303 -0.553509,-0.9345103 -0.03545,-0.9331903 0.453496,10e-4 0.446882,-0.003 0.732103,0.4707003 0.271991,0.45191 0.293952,0.45032 0.623358,-0.0468 0.140494,-0.21193 0.289983,-0.4074603 0.332581,-0.4344503 0.142081,-0.0902 0.696119,-0.0598 0.734483,0.0405 m 10.424584,0.1931503 c 0.145785,0.15637 0.348456,0.41328 0.450585,0.57097 0.267758,0.41301 0.291042,0.4064 0.752475,-0.21008 l 0.415131,-0.5548303 h 0.423334 0.423333 l 0.0164,1.3229203 c 0.01852,1.49621 0.02037,1.48933 -0.404812,1.48933 -0.398463,0 -0.427832,-0.0511 -0.427832,-0.73792 0,-0.62177 -0.12065,-0.81544 -0.284691,-0.4564 -0.126736,0.27675 -0.560917,0.76755 -0.649288,0.73369 -0.04789,-0.0185 -0.239712,-0.23601 -0.426244,-0.48366 -0.414866,-0.55139 -0.454025,-0.5334 -0.454025,0.21008 0,0.68368 -0.02963,0.73421 -0.43127,0.73421 -0.474663,0 -0.47625,-0.004 -0.474927,-1.44065 0.0011,-1.4885503 -0.01429,-1.4475403 0.538956,-1.4575903 0.243946,-0.004 0.291571,0.0209 0.532871,0.2799303 m -15.954375,1.08717 c -0.104511,0.27543 -0.05106,0.40984 0.171185,0.43127 0.242359,0.0233 0.302419,-0.0921 0.172773,-0.33152 -0.06165,-0.11377 -0.09366,-0.13706 -0.09525,-0.0691 -0.0013,0.0564 0.02514,0.11933 0.059,0.14023 0.09816,0.0609 0.0053,0.15055 -0.155839,0.15055 -0.18759,0 -0.194998,-0.15346 -0.01614,-0.34369 0.113242,-0.12039 0.11721,-0.13997 0.02884,-0.13997 -0.05662,0 -0.13044,0.073 -0.164571,0.16219 m -8.3288183,-0.0357 c -0.851429,0.0545 -0.85725,0.12171 -0.0087,0.1016 l 0.691621,-0.0164 v 0.30242 0.30242 l -0.362744,0.0302 -0.363008,0.0302 0.328348,0.0439 c 0.420952,0.0561 0.488156,0 0.488156,-0.40666 0,-0.41672 -0.03598,-0.43471 -0.773642,-0.38762 m 28.2006173,0.0164 c -0.0754,0.0553 -0.0945,0.15107 -0.0802,0.40322 l 0.0188,0.33073 0.33258,0.008 c 0.18283,0.004 0.25083,-0.003 0.15108,-0.0167 -0.43947,-0.0593 -0.4535,-0.0691 -0.4535,-0.32068 0,-0.24712 0.1397,-0.45534 0.2712,-0.40507 0.041,0.0159 0.32994,0.0439 0.64241,0.0624 0.37306,0.0225 0.4953,0.0161 0.35639,-0.018 -0.38867,-0.0953 -1.13241,-0.12171 -1.23877,-0.0439 m -30.4802673,0.16986 c -1.107016,0.12621 -0.954881,0.31036 0.342106,0.4146 1.507067,0.12118 1.903942,0.13071 1.16893,0.0286 -0.332582,-0.0463 -0.78158,-0.0876 -0.997744,-0.0918 -0.484717,-0.01 -0.958321,-0.0789 -0.876829,-0.1278 0.1397,-0.0847 0.754856,-0.19288 1.324504,-0.2331 l 0.610658,-0.0434 -0.544248,-10e-4 c -0.299508,-5.3e-4 -0.761735,0.0238 -1.027377,0.054 m 32.4656973,-0.007 c 1.02685,0.091 1.46473,0.26485 0.81121,0.322 -1.03584,0.0902 -2.03041,0.20823 -1.58803,0.18812 0.76121,-0.0347 1.97776,-0.14684 2.17646,-0.20082 l 0.18071,-0.0492 -0.15054,-0.0984 c -0.17595,-0.11482 -1.00489,-0.22965 -1.57004,-0.21748 -0.39185,0.008 -0.39079,0.009 0.14023,0.0558 m -9.256977,0.64559 c 0.159014,0.0124 0.404018,0.0122 0.544248,-5.3e-4 0.140493,-0.0124 0.01032,-0.0228 -0.288925,-0.0225 -0.299509,0 -0.414338,0.0103 -0.255323,0.023"
       stroke="none"
       fill="#5b6264"
       fill-rule="evenodd"
       style="stroke-width:0.264583" />
    <path
       id="path3"
       d="m 16.126681,0.39266293 c -0.324115,0.0109 -1.480609,0.0439 -2.570163,0.0733 l -1.9812,0.054 2.177257,-0.0344 c 1.197239,-0.0191 3.864239,-0.0524 5.926666,-0.0744 l 3.749411,-0.0397 -3.356505,5.3e-4 c -1.845997,5.3e-4 -3.621352,0.01 -3.945466,0.0206 m 7.58825,0.022 c 0.05397,0.0302 1.154906,0.0661 2.446073,0.0799 l 2.347647,0.0251 -2.176991,-0.0516 c -1.197504,-0.028 -2.298171,-0.0643 -2.446073,-0.0799 -0.180181,-0.019 -0.236538,-0.0103 -0.170656,0.0265 m -17.6731073,0.20955 -2.025915,0.0738 2.146829,-0.0318 c 1.180836,-0.0177 2.7455807,-0.0511 3.4774187,-0.0746 l 1.3303246,-0.0426 -1.4512396,5.3e-4 c -0.7982477,2.6e-4 -2.3632577,0.0339 -3.4774177,0.0746 m 22.6634133,-0.0526 c 0.07488,0.0145 0.197379,0.0145 0.272256,0 0.07461,-0.0143 0.01349,-0.0262 -0.13626,-0.0262 -0.14949,0 -0.210873,0.0119 -0.135996,0.0262 m 2.434167,0.0145 c 3.091657,0.0802 5.330027,0.11403 4.263497,0.0643 -0.53208,-0.0246 -2.11058,-0.0598 -3.507583,-0.0778 -2.053431,-0.0267 -2.198158,-0.0241 -0.755914,0.0135 m -29.5124183,0.17039 c -0.91916195,0.0966 -0.65034595,0.24976997 0.423333,0.24104 0.656167,-0.005 0.728398,-0.0132 0.367771,-0.041 -0.531283,-0.0408 -0.423333,-0.16643 0.176477,-0.20532 0.183092,-0.0116 0.07408,-0.019 -0.241829,-0.0161 -0.315912,0.003 -0.642673,0.0127 -0.725752,0.0214 m 36.4672553,0.01 c 0.86439,0.0526 1.11363,0.13996 0.54425,0.19076 -0.31089,0.0275 -0.2413,0.036 0.33258,0.041 0.8292,0.007 1.04722,-0.0368 0.7829,-0.15716 -0.10689,-0.0487 -0.55589,-0.0831 -1.26074,-0.0966 -0.8808,-0.0167 -0.95858,-0.0124 -0.39899,0.022 M 4.8927377,1.0871929 c 0.848254,0.0354 3.188494,0.0545 5.2009143,0.0426 4.760912,-0.0283 15.445845,-0.0254 20.319999,0.006 2.193925,0.014 4.61804,-0.004 5.65468,-0.0423 l 1.81424,-0.0669 -1.84467,0.0362 c -1.01441,0.0201 -3.545418,0.0251 -5.62425,0.0111 -5.333206,-0.036 -16.152018,-0.036 -19.805914,-2.6e-4 -1.6962436,0.0167 -4.0232533,0.0122 -5.1707513,-0.0101 l -2.086504,-0.0402 1.542256,0.0643 m 10.8555893,1.65603 c -0.236009,0.0831 -0.236802,0.0841 -0.03043,0.0463 0.116416,-0.0212 0.334168,-0.0587 0.483922,-0.0834 l 0.271992,-0.0444 -0.241829,-0.002 c -0.133085,-7.9e-4 -0.350838,0.0365 -0.483658,0.0833 m 1.330325,-0.0402 c 0.133085,0.0233 0.337079,0.0603 0.453495,0.0825 l 0.211667,0.0405 -0.211667,-0.0857 c -0.116416,-0.0471 -0.32041,-0.0841 -0.453495,-0.0825 l -0.24183,0.003 0.24183,0.0423 m -11.6011853,0.16431 c -0.02223,0.0222 -0.04048,1.31392 -0.04048,2.87046 0,3.2967098 -0.09578,2.9553998 0.830527,2.9553998 0.797454,0 0.741892,0.11906 0.741892,-1.5859198 v -1.44065 l 0.166423,0.10477 0.166158,0.10478 -0.116417,-0.13494 c -0.223573,-0.25929 -0.245268,-0.15028 -0.276754,1.38456 l -0.03016,1.4766398 -0.626004,0.0175 c -0.40984,0.0111 -0.655373,-0.007 -0.710671,-0.0529 -0.115359,-0.0955 -0.126736,-5.5525498 -0.01191,-5.6673798 0.04339,-0.0434 0.04736,-0.0725 0.01005,-0.0725 -0.0344,0 -0.0807,0.018 -0.102659,0.0402 m 1.589617,0.0915 c 0.06773,0.0728 0.232569,0.31644 0.366183,0.54134 0.133879,0.22516 0.271992,0.42704 0.307182,0.44873 0.03493,0.0217 -0.07779,-0.18785 -0.250561,-0.46566 -0.369094,-0.59294 -0.416454,-0.65617 -0.490273,-0.65617 -0.03043,0 0,0.0593 0.06747,0.13176 m 5.1628143,-0.0564 c 0.09472,0.0696 0.1016,0.29606 0.08705,2.8575 l -0.01587,2.7820898 h -0.735277 c -0.404283,0 -0.722312,0.0204 -0.706966,0.0452 0.06138,0.0987 1.45706,0.0519 1.496218,-0.0503 0.04789,-0.12488 0.04789,-5.4895698 0,-5.6144598 -0.02011,-0.0526 -0.0799,-0.0955 -0.132556,-0.0955 -0.08361,0 -0.08255,0.01 0.0074,0.0754 m 2.792677,0.13308 c -0.563563,0.32147 -1.497013,1.42902 -1.338263,1.58803 0.01587,0.0159 0.105833,-0.13018 0.19976,-0.32411 0.219605,-0.4535 0.79428,-1.0295 1.2446,-1.24752 0.320146,-0.15504 0.416455,-0.22648 0.302155,-0.2241 -0.02514,5.3e-4 -0.208757,0.0939 -0.408252,0.2077 m 2.872581,-0.118 c 0.08308,0.0476 0.178329,0.0865 0.211666,0.0865 0.03334,0 -0.0077,-0.0389 -0.09075,-0.0865 -0.08308,-0.0474 -0.178329,-0.0863 -0.211666,-0.0863 -0.03334,0 0.0077,0.0389 0.09075,0.0863 m 2.44475,-0.0101 c -0.01693,0.0444 0.06191,0.28258 0.175418,0.52917 0.113771,0.24686 0.309034,0.68765 0.434182,0.97975 0.125148,0.2921 0.237331,0.52123 0.249502,0.50906 0.01217,-0.0119 -0.08784,-0.2757 -0.22225,-0.58552 -0.134673,-0.3101 -0.298715,-0.68871 -0.364861,-0.84191 -0.06641,-0.15293 -0.146843,-0.32517 -0.178858,-0.38311 -0.117475,-0.21114 -0.068,-0.22755 0.687388,-0.22755 0.733425,0 0.746918,0.003 0.826558,0.15108 0.04445,0.0831 0.09366,0.13838 0.109008,0.12303 0.01561,-0.0156 -0.01667,-0.0974 -0.07197,-0.1815 -0.118798,-0.18124 -1.577711,-0.24553 -1.644121,-0.0725 m 4.448175,0.0116 c -0.116682,0.14076 -0.03334,0.16722 0.09181,0.0291 0.06033,-0.0667 0.08149,-0.12118 0.04736,-0.12118 -0.0344,0 -0.0971,0.0413 -0.139171,0.0921 m 1.478227,0.13468 -0.005,0.22674 0.07461,-0.1815 c 0.07223,-0.17515 0.06403,-0.27226 -0.02302,-0.27199 -0.02302,2.6e-4 -0.04392,0.10213 -0.04657,0.22675 m 1.153318,-0.0908 c -0.01826,0.0749 -0.0254,1.37425 -0.0164,2.88767 l 0.01693,2.7516598 h 0.720725 c 0.589227,0 0.725223,-0.0164 0.745331,-0.0907 0.01905,-0.0693 0.01191,-0.0722 -0.03016,-0.013 -0.04022,0.0572 -0.229658,0.0733 -0.715168,0.0606 l -0.6604,-0.0172 -0.01561,-2.7394998 c -0.01058,-1.81954 0.0056,-2.77892 0.04736,-2.8575 0.04233,-0.0788 0.04286,-0.118 0.0019,-0.118 -0.03387,0 -0.0762,0.0611 -0.09446,0.13599 m 0.499534,-0.0923 c 0.10795,0.0135 0.284956,0.0135 0.392906,0 0.108215,-0.0135 0.01984,-0.0243 -0.196585,-0.0243 -0.216165,0 -0.304536,0.0109 -0.196321,0.0243 m 0.814916,-0.006 c 0.09234,0.0273 0.106628,0.14553 0.123296,1.02474 l 0.01879,0.99351 -0.0024,-1.01204 c -0.0021,-0.96705 -0.0077,-1.01282 -0.123295,-1.02473 -0.09128,-0.01 -0.09525,-0.005 -0.01641,0.0185 m 1.740165,2.82258 c 0,2.1441798 0.01799,2.8786698 0.0725,2.9331698 0.122237,0.12224 4.765944,0.10186 4.920194,-0.0214 0.11324,-0.0907 0.11271,-0.0918 -0.0159,-0.0296 -0.0894,0.0431 -0.91837,0.0593 -2.509835,0.0487 l -2.376223,-0.0159 V 5.7147929 c 0,-1.58829 -0.02064,-2.88766 -0.04551,-2.88766 -0.02487,0 -0.04524,1.2872 -0.04524,2.86041 m 2.615408,-2.81543 c 0.39105,0.0106 1.03055,0.0106 1.42134,0 0.39079,-0.0106 0.0709,-0.0191 -0.71067,-0.0191 -0.78158,0 -1.101461,0.008 -0.71067,0.0191 m 2.34156,0.072 c 0.0344,0.0643 0.0624,0.31089 0.0624,0.54822 0,0.71623 0.13705,0.66516 -1.78409,0.66516 -1.888853,0 -1.784078,-0.0312 -1.784078,0.53287 0,0.45853 0.0056,0.46038 1.475848,0.4953 l 1.27582,0.0302 v 0.54425 0.54424 l -1.27,0.0153 c -1.208618,0.0143 -1.275029,0.0212 -1.375835,0.14261 -0.196585,0.23707 -0.120385,0.9027598 0.102923,0.8995798 0.03493,-5.3e-4 0.02355,-0.0262 -0.02514,-0.0572 -0.102658,-0.0648 -0.1016,-0.6990298 0.0016,-0.8231198 0.04418,-0.0534 0.410104,-0.0765 1.311802,-0.0828 1.43616,-0.01 1.34329,0.0325 1.34461,-0.6186 10e-4,-0.71173 0.11563,-0.65484 -1.32106,-0.6559 -1.466056,-0.001 -1.411287,0.0183 -1.387475,-0.48842 l 0.01826,-0.38761 1.680365,-0.0302 c 1.94231,-0.0349 1.79467,0.023 1.79599,-0.70564 10e-4,-0.51038 -0.0318,-0.68527 -0.12859,-0.68527 -0.0323,0 -0.0296,0.0495 0.007,0.11694 m -24.898876,0.26088 c -0.134408,0.1696 -0.383911,0.60034 -0.327554,0.56542 0.06376,-0.0392 0.448204,-0.64109 0.409839,-0.64109 -0.01217,0 -0.04921,0.0341 -0.08228,0.0757 m 14.093296,0.0939 c -0.187855,0.44186 -0.259292,0.63712 -0.239448,0.65696 0.01191,0.0119 0.09737,-0.15663 0.18997,-0.37438 0.09261,-0.21802 0.157163,-0.4072 0.143669,-0.42096 -0.01349,-0.0135 -0.05583,0.0487 -0.09419,0.13838 m -6.119019,-0.0696 c 0.004,0.0283 0.173037,0.20108 0.375973,0.38391 0.244739,0.22039 0.308769,0.26114 0.189971,0.12065 -0.215636,-0.25533 -0.575469,-0.576 -0.565944,-0.50456 m 7.636139,0.17859 c -0.02249,0.063 -0.09287,0.23283 -0.156898,0.37756 -0.06403,0.14446 -0.10451,0.27437 -0.09049,0.28866 0.01429,0.0143 0.09869,-0.14182 0.18759,-0.3466 0.0889,-0.20506 0.147902,-0.38656 0.130968,-0.40323 -0.01693,-0.0169 -0.04895,0.0206 -0.07117,0.0836 m -3.893343,0.29686 c 0,0.0172 0.02725,0.0783 0.06033,0.136 0.03334,0.0579 0.08863,0.18362 0.122766,0.27966 0.03413,0.0963 0.07567,0.1614 0.09234,0.14473 0.03466,-0.0347 -0.194204,-0.59134 -0.243152,-0.59134 -0.01773,0 -0.03228,0.0138 -0.03228,0.031 m -12.194117,0.22596 c -0.02487,0.0415 -0.1362596,0.21854 -0.2473846,0.39317 -0.110861,0.17462 -0.188119,0.3175 -0.17145,0.3175 0.01667,0 0.120914,-0.14288 0.232039,-0.3175 0.2846916,-0.44768 0.2963336,-0.46884 0.2624666,-0.46884 -0.0164,0 -0.05053,0.0341 -0.07567,0.0757 m -2.1285723,0.31829 c 0.688446,1.18401 0.854075,1.42028 0.9950977,1.42028 0.07911,0 0.143669,-0.0217 0.143669,-0.0481 0,-0.0265 0.122767,-0.23495 0.272785,-0.46302 0.149754,-0.22834 0.261673,-0.42598 0.248444,-0.43921 -0.01349,-0.0135 -0.1524,0.1815 -0.309298,0.43286 -0.373062,0.59875 -0.40296,0.59187 -0.8702137,-0.20056 -0.212461,-0.36036 -0.439209,-0.72046 -0.504032,-0.8001 -0.08625,-0.10609 -0.08017,-0.0799 0.02355,0.0979 m 16.3282303,-0.0587 c -0.101335,0.22252 -0.08202,0.26988 0.02752,0.0677 0.05133,-0.0945 0.08176,-0.1831 0.068,-0.19685 -0.01402,-0.0138 -0.05689,0.0442 -0.09551,0.12911 m -7.765785,-0.0505 c 0.07461,0.0143 0.197115,0.0143 0.271992,0 0.07488,-0.0146 0.01376,-0.0262 -0.135996,-0.0262 -0.149754,0 -0.210873,0.0116 -0.135996,0.0262 m 0.559594,0.0743 c 1.335881,0.4064 1.481931,2.18679 0.230452,2.81041 -0.173302,0.0863 -0.281252,0.1568998 -0.240242,0.1568998 0.292365,0 0.895615,-0.5400198 1.072621,-0.9599098 0.330994,-0.78555 -0.372004,-2.09391 -1.105958,-2.05872 -0.07303,0.003 -0.05874,0.0201 0.04313,0.0513 m -1.333236,0.15161 c -0.309298,0.20294 -0.670189,0.72761 -0.659341,0.95885 0.0019,0.0399 0.04948,-0.0363 0.105833,-0.16907 0.162454,-0.38391 0.311944,-0.56832 0.594783,-0.73395 0.144992,-0.0849 0.263525,-0.16563 0.263525,-0.17912 0,-0.0519 -0.09895,-0.0119 -0.3048,0.12329 m 3.6957,-0.0569 c 0,0.0331 0.03889,0.12832 0.08652,0.21166 0.04763,0.0831 0.08652,0.12383 0.08652,0.0905 0,-0.0331 -0.03889,-0.12832 -0.08652,-0.21167 -0.04762,-0.0831 -0.08652,-0.12382 -0.08652,-0.0905 m 6.234642,0.24447 c -0.101336,0.22225 -0.08202,0.26961 0.02752,0.0675 0.05133,-0.0942 0.08176,-0.18283 0.068,-0.19659 -0.01376,-0.014 -0.05689,0.0442 -0.09551,0.12912 m -1.724819,0.42915 c -0.121973,0.28814 -0.208492,0.53737 -0.192352,0.55378 0.0164,0.0161 0.04815,-0.022 0.07038,-0.0849 0.05609,-0.15849 0.257175,-0.63051 0.338667,-0.79481 0.03704,-0.0746 0.05318,-0.15002 0.03625,-0.16695 -0.0172,-0.0172 -0.130969,0.20478 -0.252942,0.49291 m -10.3759,0.0344 c -0.04418,0.18362 -0.06535,0.37174 -0.0471,0.41778 0.01826,0.046 0.03545,0.0127 0.0381,-0.0736 0.0026,-0.0865 0.0344,-0.24262 0.07064,-0.3466 0.03625,-0.10398 0.0553,-0.22119 0.04207,-0.26035 -0.01296,-0.0392 -0.0598,0.0789 -0.103717,0.26273 m 6.079596,-0.16378 c 0.290777,1.56845 -0.441854,3.0355698 -1.784085,3.5726698 -0.139171,0.0556 -0.239977,0.11404 -0.224367,0.12965 0.07382,0.0741 0.851694,-0.39423 1.174485,-0.70697 0.799836,-0.7754898 1.189038,-2.0663898 0.885032,-2.9350198 -0.06006,-0.17198 -0.07488,-0.18944 -0.05106,-0.0603 m 3.108854,-0.0267 c -2.64e-4,0.0519 0.03969,0.14711 0.08837,0.21167 0.115623,0.15266 0.116681,0.0865 0.0024,-0.13282 -0.04974,-0.0952 -0.09049,-0.13071 -0.09075,-0.0788 m 2.730765,0.15028 c -0.101336,0.22225 -0.08176,0.26961 0.02778,0.0675 0.05107,-0.0942 0.08149,-0.18282 0.06773,-0.19658 -0.01376,-0.014 -0.05662,0.0442 -0.09551,0.12911 m -4.241007,0.0357 c -0.0011,0.0212 0.03863,0.11642 0.08837,0.21167 0.04974,0.0953 0.09049,0.13097 0.09075,0.0791 2.65e-4,-0.0889 -0.175154,-0.37333 -0.179123,-0.29078 m 1.693598,0.21537 c -0.0026,0.087 0.401902,0.98611 0.443707,0.98611 0.05424,0 0.293423,-0.36936 0.260614,-0.40244 -0.01799,-0.0177 -0.07937,0.0582 -0.136525,0.16881 l -0.103981,0.20135 -0.110067,-0.24104 c -0.06032,-0.13256 -0.164306,-0.36327 -0.230716,-0.51303 -0.06641,-0.14975 -0.121973,-0.23971 -0.123032,-0.19976 m 2.366169,0.17225 c -0.101335,0.22225 -0.08202,0.26961 0.02752,0.0675 0.05106,-0.0942 0.08176,-0.18283 0.06773,-0.19659 -0.01376,-0.014 -0.05662,0.0442 -0.09525,0.12912 m 3.58431,1.38827 c 0,0.8315798 0.0085,1.1800398 0.01905,0.7746998 0.01032,-0.40561 0.01058,-1.0861198 0,-1.5120998 -0.01032,-0.42598 -0.01878,-0.0942 -0.01905,0.7374 m -13.85861,-1.11893 c 0,0.14976 0.01164,0.21114 0.02619,0.13626 0.01429,-0.0749 0.01429,-0.19738 0,-0.27225 -0.01455,-0.0749 -0.02619,-0.0135 -0.02619,0.13599 m 6.393921,-0.20558 c 0,0.0333 0.02249,0.0865 0.05001,0.11801 0.02752,0.0315 0.141552,0.27516 0.253471,0.54133 0.205052,0.48816 0.361685,0.77444 0.361685,0.6604 0,-0.0339 -0.02275,-0.0876 -0.0508,-0.11932 -0.02778,-0.0315 -0.153193,-0.30216 -0.278606,-0.60167 -0.218281,-0.52202 -0.335756,-0.7313 -0.335756,-0.59875 m -10.860352,0.3429 c -0.286015,0.42783 -0.245269,0.43947 0.05397,0.0156 0.06033,-0.0855 0.135202,-0.13943 0.166423,-0.12012 0.03122,0.0191 0.05662,0.008 0.05662,-0.0257 0,-0.15875 -0.122238,-0.10134 -0.277019,0.13017 m 14.531975,0.0572 c -0.233098,0.49345 -0.584994,1.3398498 -0.565415,1.3596998 0.01191,0.0119 0.152665,-0.2852298 0.312738,-0.6603998 0.160073,-0.37518 0.3175,-0.71676 0.349779,-0.75909 0.03202,-0.0423 0.04471,-0.091 0.02752,-0.10795 -0.01693,-0.0169 -0.07303,0.0585 -0.124619,0.16774 m -14.238552,0.16854 c 0,0.14976 0.01191,0.21087 0.02619,0.136 0.01455,-0.0749 0.01455,-0.19738 0,-0.27199 -0.01429,-0.0749 -0.02619,-0.0138 -0.02619,0.13599 m -3.4493723,0.0151 c 0.04868,0.0749 0.245004,0.38947 0.436298,0.69956 0.191294,0.30983 0.361156,0.5500698 0.377296,0.5339298 0.0164,-0.0164 -0.02461,-0.10663 -0.09075,-0.2005498 -0.06588,-0.0942 -0.261409,-0.39556 -0.434446,-0.67019 -0.172773,-0.27438 -0.328348,-0.49874 -0.345546,-0.49874 -0.0172,0 0.0085,0.0611 0.05715,0.13599 m 6.0989093,-0.0151 c -0.0019,0.0831 0.03598,0.26009 0.08387,0.39317 0.111125,0.30824 0.113242,0.15399 0.0032,-0.24209 -0.05265,-0.19024 -0.08493,-0.24633 -0.08705,-0.15108 m -3.3528,0.37783 C 9.4786824,7.4598627 9.5199574,7.3884227 9.5932464,7.3431827 c 0.03413,-0.0209 0.155575,-0.19527 0.269875,-0.3873498 0.114565,-0.19183 0.2571746,-0.42387 0.3172356,-0.51515 0.06006,-0.0915 0.09313,-0.16642 0.07329,-0.16642 -0.01958,0 -0.07382,0.0614 -0.12065,0.136 m 5.041107,-0.0974 c 0,0.35084 0.918104,0.9326598 1.451504,0.9199598 l 0.332581,-0.008 -0.393171,-0.0415 c -0.581554,-0.0614 -0.960702,-0.2920998 -1.290902,-0.7860698 -0.05503,-0.0823 -0.100012,-0.12012 -0.100012,-0.0841 m -1.507596,0.41487 c 0,0.0333 0.03889,0.12858 0.08652,0.21166 0.04736,0.0833 0.08625,0.12409 0.08625,0.0908 0,-0.0331 -0.03889,-0.12833 -0.08625,-0.21167 -0.04762,-0.0831 -0.08652,-0.12383 -0.08652,-0.0907 m 8.407664,0.1815 c 0,0.0333 0.07911,0.21008 0.175684,0.3931698 0.09657,0.18283 0.175683,0.30533 0.175683,0.27199 0,-0.0331 -0.07911,-0.21008 -0.175683,-0.3929 -0.09657,-0.1830898 -0.175684,-0.3055998 -0.175684,-0.2722598 m -8.037777,0.4762498 c 0.351367,0.51673 1.268413,1.20068 1.586971,1.18348 0.03572,-0.002 -0.134673,-0.0989 -0.378619,-0.21537 -0.431535,-0.20611 -0.858308,-0.56753 -1.241425,-1.05119 -0.11086,-0.14023 -0.09975,-0.11218 0.03307,0.0831 m 10.352881,0.014 c -0.02222,0.063 -0.09287,0.23284 -0.156897,0.37756 -0.06376,0.14447 -0.104511,0.27438 -0.09022,0.28866 0.01429,0.0143 0.09843,-0.14181 0.187325,-0.34686 0.0889,-0.20479 0.147902,-0.3863 0.130968,-0.40323 -0.01693,-0.0167 -0.04895,0.0209 -0.07117,0.0839 m 9.592992,-0.0601 c 0.32756,0.041 1.56369,0.0519 1.46526,0.013 -0.0574,-0.0228 -0.44476,-0.0394 -0.86042,-0.0368 -0.41593,0.003 -0.68792,0.0135 -0.60484,0.0238 m -25.4928613,0.45773 c 0.156633,0.25374 0.3368137,0.47519 0.4005787,0.49186 0.06377,0.0164 0.100542,0.006 0.08176,-0.0246 -0.01852,-0.0302 -0.06615,-0.0553 -0.105833,-0.0556 -0.03969,-2.6e-4 -0.1672167,-0.16589 -0.2833687,-0.36777 -0.116152,-0.20187 -0.248708,-0.39819 -0.294481,-0.43603 -0.04577,-0.0381 0.04471,0.13838 0.201348,0.39211 m 0.8937617,-0.20743 c -0.181504,0.26352 -0.403225,0.6559 -0.333375,0.58949 0.08705,-0.0825 0.510646,-0.75591 0.475721,-0.75591 -0.01535,0 -0.07937,0.0749 -0.142346,0.16642 m 13.0481916,0.10398 c 0,0.0672 0.320675,0.69903 0.343164,0.67628 0.02672,-0.0265 -0.281252,-0.70485 -0.320145,-0.70485 -0.0127,0 -0.02302,0.013 -0.02302,0.0286 m 1.490927,0.78528 c -0.04524,0.11801 -0.940858,0.13547 -1.055688,0.0209 -0.04842,-0.0487 -0.0725,-0.0508 -0.0725,-0.007 0,0.16722 1.016,0.20902 1.150408,0.0474 0.04207,-0.0508 0.06218,-0.10636 0.04498,-0.12356 -0.0172,-0.0172 -0.04736,0.0106 -0.0672,0.0619 m -8.01026,0.16987 c 0.109802,0.0254 0.417247,0.046 0.683418,0.046 0.265907,0 0.573617,-0.0206 0.683154,-0.046 0.122238,-0.0283 -0.14261,-0.0463 -0.683154,-0.0463 -0.540808,0 -0.805656,0.018 -0.683418,0.0463 M 8.4732727,10.035823 c -0.113771,0.11404 -0.1016,2.54953 0.01323,2.64478 0.04948,0.041 0.222515,0.0635 0.4082517,0.0529 l 0.322528,-0.0185 0.0032,-0.61992 0.0034,-0.62018 -0.02064,0.6051 -0.02037,0.60484 h -0.292894 c -0.4344457,0 -0.4333877,0.003 -0.4148667,-1.39885 l 0.0164,-1.2319 0.3399897,-0.018 c 0.3175,-0.0167 0.350838,-0.005 0.501385,0.17383 0.0889,0.10557 0.173303,0.18018 0.18759,0.16589 0.01429,-0.0145 -0.05318,-0.11324 -0.150283,-0.21934 C 9.1791644,9.9471927 8.6351807,9.8741627 8.4732557,10.035823 m 2.5479373,0.041 c -0.06085,0.0656 -0.26035,0.32438 -0.443177,0.57574 -0.398727,0.54715 -0.412221,0.54954 -0.7310436,0.12726 -0.324379,-0.42968 -0.37174,-0.42968 -0.07408,-2.6e-4 0.2844266,0.4101 0.4198926,0.46751 0.5812886,0.24579 0.06509,-0.0892 0.258763,-0.34422 0.430213,-0.56673 l 0.312208,-0.40455 0.376767,-0.018 0.377031,-0.018 -0.0164,1.31816 -0.0164,1.31815 h -0.302155 -0.302418 l -0.01508,-0.57441 c -0.02619,-0.99774 -0.09472,-1.03108 -0.597164,-0.29051 -0.407459,0.60034 -0.397404,0.59769 -0.6998226,0.19632 -0.438415,-0.58208 -0.569648,-0.71834 -0.617273,-0.64135 -0.02461,0.04 -0.0085,0.0704 0.03757,0.0704 0.04445,0 0.120914,0.0572 0.169862,0.12674 0.6876516,0.98134 0.7590896,0.98398 1.3107456,0.0503 0.218811,-0.37068 0.320146,-0.24051 0.321204,0.41248 0.0013,0.73157 0.01376,0.75274 0.428096,0.72919 l 0.327025,-0.0185 v -1.36075 -1.3607503 l -0.373062,-0.0177 c -0.307711,-0.0148 -0.392377,0.003 -0.483923,0.1010703 m 3.259402,-0.0378 c -0.03387,0.0415 -0.10504,0.18441 -0.158221,0.3175 -0.08043,0.20108 -0.08149,0.22198 -0.0063,0.12435 0.04974,-0.0646 0.09049,-0.14869 0.09049,-0.18706 0,-0.15928 0.22225,-0.26405 0.605896,-0.28522 l 0.391848,-0.022 -0.431006,-0.0116 c -0.284163,-0.008 -0.451908,0.014 -0.492654,0.064 m 3.031066,0.0177 c -0.01958,0.0513 -0.01878,0.11034 0.0019,0.13097 0.0209,0.0206 0.03784,-0.008 0.03784,-0.063 0,-0.082 0.06218,-0.1008 0.3302,-0.1008 0.369623,0 0.369623,-2.7e-4 0.699823,0.5281 0.287602,0.46038 0.33655,0.45218 0.702469,-0.11879 l 0.269081,-0.4199 0.360098,0.0204 c 0.197908,0.0111 0.359833,0 0.359833,-0.0251 0,-0.0249 -0.167217,-0.0452 -0.371475,-0.0452 -0.411692,0 -0.411956,2.6e-4 -0.718079,0.52308 -0.256117,0.43682 -0.320411,0.44132 -0.551127,0.0381 -0.290513,-0.508 -0.361686,-0.56118 -0.750094,-0.56118 -0.245798,0 -0.344223,0.0249 -0.370417,0.0934 m 4.106069,-0.0233 c -0.08705,0.0871 -0.108215,2.50534 -0.02302,2.63948 0.07276,0.11483 0.744538,0.0733 0.78449,-0.0487 0.02513,-0.0762 0.01455,-0.0781 -0.06588,-0.0116 -0.05821,0.0481 -0.210873,0.072 -0.38788,0.0606 l -0.2921,-0.0188 v -1.30016 -1.30016 h 0.332582 0.332846 l 0.03016,0.41037 c 0.03625,0.49292 0.07355,0.52493 0.614892,0.52599 0.437356,10e-4 0.594518,-0.0355 0.594518,-0.13864 0,-0.0442 -0.02381,-0.0421 -0.0725,0.007 -0.100807,0.10081 -0.92075,0.0966 -1.005417,-0.005 -0.03545,-0.0429 -0.07276,-0.25374 -0.08308,-0.46884 l -0.01826,-0.3907903 -0.333111,-0.0177 c -0.206904,-0.0108 -0.361421,0.0109 -0.408252,0.0577 m 1.963473,-0.0323 c -0.02355,0.0236 -0.04286,0.0709 -0.04286,0.10531 0,0.0373 0.02911,0.0333 0.07276,-0.0101 0.03969,-0.04 0.216164,-0.0725 0.391848,-0.0725 h 0.319087 l 0.01826,1.22449 0.01826,1.22475 -0.0019,-1.23983 -0.0019,-1.2398415 -0.36539,-0.0177 c -0.200819,-0.01 -0.384704,0.002 -0.408252,0.0254 m 2.389717,0.0333 c -0.07805,0.0781 -0.111125,2.42226 -0.03731,2.61514 0.03175,0.0823 0.1905,0.0955 1.146969,0.0955 1.176338,0 1.248304,-0.0183 1.230577,-0.31354 -0.0026,-0.0436 -0.03228,-0.004 -0.06588,0.0881 l -0.06112,0.16775 -1.098285,-0.0164 -1.098286,-0.0167 v -1.30016 -1.30016 l 1.099079,-0.0164 c 0.847461,-0.0127 1.1049,0.001 1.124744,0.0603 0.01535,0.0466 0.02302,0.0413 0.01905,-0.0138 -0.009,-0.1217095 -2.140743,-0.1685395 -2.259541,-0.0497 m 3.776397,-0.031 c -0.02223,0.0222 -0.04022,0.0685 -0.04022,0.10293 0,0.0373 0.0291,0.0333 0.0725,-0.0101 0.03995,-0.04 0.216429,-0.0725 0.392641,-0.0725 0.337609,0 0.305594,-0.0209 0.744273,0.48365 l 0.131498,0.15135 -0.119856,-0.18151 c -0.291306,-0.44053 -0.40349,-0.5140795 -0.784754,-0.5140795 -0.195792,0 -0.373857,0.0182 -0.396082,0.040199 m 2.641336,0.006 c -0.03836,0.0243 0.111389,0.0444 0.332846,0.0444 h 0.402431 l 0.03202,1.27 0.03201,1.27 0.01349,-1.24275 c 0.0095,-0.90144 -0.0069,-1.26286 -0.05953,-1.31551 -0.07858,-0.0788 -0.639763,-0.098399 -0.753269,-0.0262 m -17.01456,0.11192 c 0,0.0333 0.03995,0.1135 0.0889,0.17806 0.04868,0.0646 0.08864,0.09 0.08864,0.0569 0,-0.0333 -0.03995,-0.11351 -0.08864,-0.17807 -0.04895,-0.0646 -0.0889,-0.09 -0.0889,-0.0569 m 16.685418,0.28019 c -0.305064,0.39635 -0.313266,0.40825 -0.280723,0.40825 0.01667,0 0.143404,-0.14975 0.281517,-0.33258 0.138112,-0.18309 0.238919,-0.33258 0.223837,-0.33258 -0.01482,0 -0.115887,0.11562 -0.224631,0.25691 m -14.342533,0.13335 c 0.08943,0.1479 0.172244,0.25929 0.18415,0.24739 0.0254,-0.0254 -0.277812,-0.51674 -0.318823,-0.51674 -0.01535,0 0.04524,0.12118 0.134673,0.26935 m 12.0142,0.7284 c 0,0.499 0.0095,0.69506 0.0209,0.43577 0.01138,-0.25929 0.01111,-0.66755 -2.65e-4,-0.90726 -0.01138,-0.23945 -0.02064,-0.0272 -0.02064,0.47149 m -14.171348,-0.78608 c 0,0.0333 0.03889,0.12859 0.08652,0.21167 0.04736,0.0831 0.08625,0.12382 0.08625,0.0907 0,-0.0333 -0.03889,-0.12859 -0.08625,-0.21167 -0.04762,-0.0833 -0.08652,-0.12409 -0.08652,-0.0907 m 12.599987,0.0291 c -0.03149,0.0315 -0.369887,0.0651 -0.751945,0.0746 l -0.694532,0.0172 -0.01799,0.15636 c -0.02725,0.23337 0.09287,0.28999 0.656166,0.30957 l 0.510911,0.018 v 0.24183 0.24183 l -0.510911,0.0177 c -0.488156,0.0169 -0.668337,0.0738 -0.668337,0.21088 0,0.0341 0.04974,0.0172 0.110596,-0.0378 0.08202,-0.0743 0.226748,-0.10001 0.562504,-0.10001 0.504825,0 0.5969,-0.0513 0.5969,-0.33258 0,-0.28284 -0.09155,-0.33258 -0.609336,-0.33258 -0.484187,0 -0.652462,-0.0791 -0.578643,-0.27147 0.02857,-0.0743 0.165364,-0.0915 0.728927,-0.0915 0.426244,0 0.709083,-0.0249 0.733689,-0.0643 0.05371,-0.087 0.0037,-0.12938 -0.068,-0.0577 m -14.371372,1.0922 c -0.223573,0.53049 -0.39079,1.00568 -0.371475,1.05568 0.06429,0.16748 0.675216,0.12251 0.818885,-0.0603 0.123561,-0.15716 1.319742,-0.24315 1.319742,-0.095 0,0.15452 0.204258,0.24607 0.548481,0.24607 0.197379,0 0.358775,-0.0204 0.358775,-0.0452 0,-0.0249 -0.161131,-0.0363 -0.358246,-0.0251 -0.329141,0.0185 -0.366448,0.008 -0.460639,-0.136 -0.154782,-0.23654 -1.198034,-0.24024 -1.418961,-0.005 -0.186002,0.19817 -0.725752,0.22622 -0.725752,0.0378 0,-0.11165 0.257704,-0.78369 0.569383,-1.48484 0.08758,-0.19711 0.151871,-0.37967 0.142875,-0.4056 -0.0093,-0.0259 -0.199495,0.38708 -0.423068,0.91784 m 5.788818,-0.45324 c -0.193145,0.2929 -0.328612,0.56119 -0.313266,0.61966 0.02355,0.09 0.02805,0.0886 0.03413,-0.009 0.0037,-0.0617 0.09234,-0.23865 0.19685,-0.39317 0.307975,-0.45535 0.478631,-0.73448 0.449792,-0.73448 -0.01508,0 -0.180446,0.23257 -0.367507,0.51699 m 11.591132,-0.26617 c 0.219604,0.35269 0.323056,0.38682 0.475985,0.15611 0.113506,-0.17119 0.114565,-0.17833 0.0085,-0.059 -0.162719,0.18309 -0.209286,0.1733 -0.431271,-0.0908 l -0.190236,-0.22674 0.137055,0.22039 m -15.427061,0.0214 c 0,0.0333 0.03889,0.12859 0.08625,0.21167 0.04762,0.0831 0.08652,0.12383 0.08652,0.0907 0,-0.0333 -0.03889,-0.12858 -0.08652,-0.21166 -0.04736,-0.0833 -0.08625,-0.12409 -0.08625,-0.0908 m -0.926571,0.15611 c -0.05821,0.0339 -0.105833,0.10716 -0.105833,0.16272 0,0.0804 0.01931,0.0735 0.09419,-0.0333 0.145521,-0.2077 0.389466,0.0503 0.389466,0.41196 0,0.1598 -0.401372,0.17012 -0.520435,0.0132 -0.07567,-0.10002 -0.08043,-0.10002 -0.08228,-10e-4 -0.0021,0.1188 0.197379,0.18706 0.459581,0.15717 0.224896,-0.0257 0.252942,-0.20029 0.0852,-0.52917 -0.134673,-0.26406 -0.156634,-0.27649 -0.319882,-0.18124 m 3.431117,0.35666 c 0.124619,0.19711 0.154252,0.32596 0.164042,0.71067 l 0.01217,0.4699 0.02223,-0.4535 c 0.02169,-0.44159 -0.14314,-0.96784 -0.302948,-0.96784 -0.02593,0 0.02117,0.10848 0.10451,0.24077 m -11.9128633,-0.0564 c -0.259557,0.0373 -0.238125,0.0415 0.151077,0.0286 0.575204,-0.0188 0.602985,-0.007 0.613039,0.26088 0.0056,0.1524 0.01667,0.17727 0.03519,0.0794 0.08017,-0.42227 -0.04101,-0.4781 -0.799306,-0.36883 m 9.5895573,-0.0331 c 0,0.0333 0.03889,0.12859 0.08652,0.21166 0.04762,0.0831 0.08652,0.12383 0.08652,0.0908 0,-0.0333 -0.03889,-0.12859 -0.08652,-0.21167 -0.04763,-0.0833 -0.08652,-0.12409 -0.08652,-0.0907 m 18.746257,0.0852 c -0.13785,0.25771 0.0254,0.55298 0.29951,0.54161 0.13599,-0.006 0.13308,-0.0101 -0.0302,-0.045 -0.16484,-0.0352 -0.18151,-0.0609 -0.18151,-0.2802 v -0.2413 l 0.57468,0.022 c 0.72231,0.0273 0.69612,-0.023 -0.041,-0.0788 -0.52017,-0.0394 -0.55933,-0.0344 -0.62151,0.0818 m -4.146284,0.0206 c -0.01508,0.0415 -0.03466,0.33417 -0.04339,0.65008 l -0.01614,0.57441 -0.378089,-5.3e-4 c -0.207963,-2.6e-4 -0.377825,0.0201 -0.377825,0.0455 0,0.0251 0.173831,0.0458 0.386556,0.0458 0.465402,0 0.46011,0.009 0.46011,-0.76095 0,-0.59187 0.02805,-0.6514 0.211932,-0.4482 0.06033,0.0667 0.123296,0.10768 0.139964,0.0913 0.04683,-0.0468 -0.178858,-0.27305 -0.272521,-0.27305 -0.04577,0 -0.09551,0.0341 -0.110595,0.0757 m 1.319741,0.41407 -0.350837,0.49001 -0.226748,-0.26299 c -0.124883,-0.14473 -0.227013,-0.28364 -0.227013,-0.30851 -2.64e-4,-0.0249 -0.02884,-0.0452 -0.0635,-0.0452 -0.06641,0 0.269875,0.46117 0.42545,0.58367 0.120121,0.0945 0.130175,0.0855 0.491332,-0.43709 0.394229,-0.57018 0.442118,-0.55377 0.464343,0.15743 0.0095,0.31141 0.04683,0.60166 0.08281,0.64505 0.06959,0.0836 0.715962,0.11403 0.715962,0.0336 0,-0.0249 -0.139435,-0.0357 -0.309827,-0.0238 -0.397139,0.0272 -0.413808,-0.002 -0.414866,-0.7321 -0.0013,-0.77788 -0.09102,-0.79296 -0.587111,-0.10002 M 4.9684087,11.458593 c 0.124619,0.0132 0.328877,0.0132 0.453496,0 0.124619,-0.013 0.02275,-0.0236 -0.226748,-0.0236 -0.249502,0 -0.351631,0.0106 -0.226748,0.0236 m 30.9951423,-2.6e-4 c 0.10848,0.0135 0.27199,0.0132 0.36274,-5.3e-4 0.091,-0.0138 0.002,-0.0249 -0.19764,-0.0243 -0.1995,2.6e-4 -0.27384,0.0114 -0.1651,0.0249 m -31.9375883,0.10795 c -0.160866,0.0442 -0.308239,0.096 -0.327819,0.11562 -0.07752,0.0775 0.339196,0.0265 0.680509,-0.0836 0.443706,-0.14261 0.147902,-0.1696 -0.35269,-0.032 m 32.8585983,0.032 c 0.41937,0.12197 0.66675,0.15161 0.5715,0.0685 -0.0937,-0.082 -0.53975,-0.19209 -0.75988,-0.18733 -0.17198,0.003 -0.14182,0.0225 0.18838,0.1188 m -14.692307,0.11245 c -0.03519,0.0656 -0.059,0.26379 -0.05318,0.44079 0.01032,0.31856 0.01058,0.31883 0.03096,0.0492 0.0426,-0.56595 0.01931,-0.54425 0.59002,-0.54425 0.432065,0 0.513292,0.0159 0.53975,0.10583 0.02434,0.0823 0.02858,0.0791 0.01879,-0.0151 -0.01879,-0.18494 -1.029494,-0.21749 -1.126331,-0.0365 m -17.7077683,0.0503 c 0.124883,0.013 0.328877,0.013 0.453496,0 0.124883,-0.013 0.02275,-0.0238 -0.226748,-0.0238 -0.249502,0 -0.351367,0.0109 -0.226748,0.0238 m 11.4501073,0.0466 c 0.09631,0.30877 0.171715,0.49344 0.246327,0.60325 0.13388,0.19658 0.08361,0.0251 -0.106098,-0.36116 -0.0979,-0.19976 -0.161131,-0.3085 -0.140229,-0.24209 m 20.481399,-0.0466 c 0.12462,0.013 0.32887,0.013 0.45349,0 0.12489,-0.013 0.0228,-0.0238 -0.22674,-0.0238 -0.24951,0 -0.35164,0.0109 -0.22675,0.0238 m -31.1554833,0.0392 c 0.01402,0.0127 0.2159,0.0386 0.448733,0.0577 0.26723,0.0222 0.367507,0.0159 0.271992,-0.0167 -0.147902,-0.0505 -0.770467,-0.086 -0.720725,-0.041 m 30.0516433,0.0402 c -0.0947,0.0317 -0.004,0.0378 0.24209,0.0161 0.21616,-0.019 0.40428,-0.0447 0.41831,-0.0569 0.0495,-0.0437 -0.51197,-0.009 -0.6604,0.0407 m -28.8017603,0.10083 c 0.07488,0.0143 0.197379,0.0143 0.272256,0 0.07488,-0.0145 0.01349,-0.0262 -0.135996,-0.0262 -0.149754,0 -0.211137,0.0116 -0.13626,0.0262 m 12.5526263,0.28972 c 2.64e-4,0.19976 0.01138,0.27411 0.02487,0.16536 0.01349,-0.10874 0.01323,-0.27199 -5.29e-4,-0.363 -0.01376,-0.0908 -0.02487,-0.002 -0.02434,0.19764 m 5.061214,0.38841 c 0,0.0548 -0.106892,0.0701 -0.387614,0.0553 -0.21299,-0.0111 -0.374915,2.6e-4 -0.359305,0.0251 0.04392,0.0704 0.734748,0.0534 0.779463,-0.0191 0.02196,-0.0357 0.02355,-0.081 0.0037,-0.1008 -0.02011,-0.0201 -0.03625,-0.002 -0.03625,0.0394 m -5.826654,0.0804 c 0.01535,0.0249 0.17436,0.0452 0.353483,0.0452 0.179123,0 0.337873,-0.0204 0.353219,-0.0452 0.01535,-0.0249 -0.143669,-0.0455 -0.353483,-0.0455 -0.209815,0 -0.368829,0.0206 -0.353219,0.0455"
       stroke="none"
       fill="#848488"
       fill-rule="evenodd"
       style="stroke-width:0.264583" />
    <path
       id="path4"
       d="m 13.13001,0.45272293 c 0.223044,0.0116 0.604044,0.0116 0.846667,2.6e-4 0.242623,-0.0116 0.06006,-0.0212 -0.405607,-0.0212 -0.465666,0 -0.664104,0.009 -0.44106,0.0209 m 12.522994,-2.7e-4 c 0.159014,0.0124 0.404018,0.0124 0.544248,-2.6e-4 0.140493,-0.0127 0.01032,-0.023 -0.288925,-0.0228 -0.299509,2.6e-4 -0.414338,0.0106 -0.255323,0.023 m -14.788356,0.0603 c 0.141552,0.0127 0.372797,0.0127 0.514085,0 0.141552,-0.0127 0.02566,-0.0233 -0.25691,-0.0233 -0.28284,0 -0.398463,0.0106 -0.257175,0.0233 m 17.872603,2.6e-4 c 0.159015,0.0124 0.404019,0.0122 0.544248,-5.3e-4 0.140494,-0.0127 0.01032,-0.0228 -0.288925,-0.0228 -0.299508,2.6e-4 -0.414337,0.0106 -0.255323,0.0233 m -21.4405093,0.0601 c 0.141288,0.0127 0.372534,0.0127 0.514086,0 0.141287,-0.0127 0.02566,-0.023 -0.257175,-0.023 -0.282575,0 -0.398463,0.0103 -0.256911,0.023 m -1.601787,0.0595 c 0.09181,0.014 0.227806,0.0138 0.302419,-8e-4 0.07435,-0.0143 -0.0011,-0.0257 -0.167217,-0.0251 -0.166423,5.3e-4 -0.227277,0.0122 -0.135202,0.0259 m 29.1787763,5.2e-4 c 0.10822,0.0132 0.28496,0.0132 0.39317,0 0.10822,-0.0135 0.0196,-0.0243 -0.19658,-0.0243 -0.21617,0 -0.30454,0.0108 -0.19659,0.0243 m -31.6592453,0.0611 c 0.157956,0.0124 0.416454,0.0124 0.574675,0 0.157956,-0.0124 0.02857,-0.0228 -0.287337,-0.0228 -0.315913,0 -0.445294,0.0103 -0.287338,0.0228 m 33.4131653,-2.6e-4 c 0.14129,0.0127 0.37254,0.0127 0.51409,0 0.14129,-0.0127 0.0257,-0.023 -0.25718,-0.023 -0.28257,0 -0.39819,0.0103 -0.25691,0.023 m -35.1668233,0.0579 c 0.05821,0.0153 0.153458,0.0153 0.211666,0 0.05821,-0.0151 0.01058,-0.0275 -0.105833,-0.0275 -0.116417,0 -0.164042,0.0124 -0.105833,0.0275 m 37.6168733,0.002 c 0.0921,0.0138 0.22807,0.0135 0.30241,-0.001 0.0744,-0.0143 -7.9e-4,-0.0257 -0.16721,-0.0251 -0.16616,5.3e-4 -0.22701,0.0122 -0.1352,0.0262 m -38.14604025,0.10108 -0.181504,0.0786 0.200819,0.0455 c 0.11059595,0.0249 0.21695795,0.0291 0.23680195,0.009 0.01984,-0.0199 -0.01614,-0.0381 -0.0799,-0.041 -0.08626,-0.004 -0.06959,-0.0259 0.06562,-0.0878 0.243417,-0.11139 0.01455,-0.11562 -0.24182895,-0.004 m 38.85591225,0.007 c 0.12859,0.0735 0.13388,0.0868 0.0352,0.0886 -0.0638,0.001 -0.10107,0.0169 -0.0828,0.0352 0.0182,0.0183 0.10874,0.0143 0.20108,-0.009 0.19738,-0.0495 0.0571,-0.20743 -0.18018,-0.20347 -0.11377,0.002 -0.11165,0.01 0.0267,0.0886 M 2.8829707,1.0571529 c 0.108744,0.0135 0.271992,0.0132 0.363009,-5.3e-4 0.09075,-0.0138 0.0019,-0.0249 -0.197644,-0.0246 -0.199761,5.3e-4 -0.274109,0.0116 -0.165365,0.0251 m 35.1054503,-5.3e-4 c 0.0913,0.014 0.24103,0.014 0.33258,0 0.0915,-0.0138 0.0167,-0.0251 -0.16643,-0.0251 -0.18282,0 -0.2577,0.0114 -0.16615,0.0251 m -32.6270983,0.0598 c 0.07488,0.0146 0.197379,0.0146 0.272257,0 0.07488,-0.0143 0.01349,-0.0262 -0.135996,-0.0262 -0.149754,0 -0.210873,0.0119 -0.136261,0.0262 m 19.3254303,0.003 c 0.359569,0.0106 0.931069,0.0106 1.27,-2.6e-4 0.339196,-0.0106 0.04524,-0.0193 -0.653256,-0.0193 -0.6985,0 -0.976048,0.009 -0.616744,0.0196 m 10.398658,-0.001 c 0.12488,0.013 0.32888,0.013 0.45376,0 0.12462,-0.0132 0.0225,-0.0238 -0.22701,-0.0238 -0.24924,0 -0.35137,0.0106 -0.22675,0.0238 m -28.0910793,0.059 c 0.07488,0.0143 0.197379,0.0143 0.271991,0 0.07488,-0.0145 0.01376,-0.0262 -0.135996,-0.0262 -0.149754,0 -0.210873,0.0116 -0.135995,0.0262 m 3.8409553,8e-4 c 0.09208,0.0138 0.228071,0.0135 0.302419,-0.001 0.07435,-0.0143 -7.94e-4,-0.0257 -0.167217,-0.0251 -0.166158,5.3e-4 -0.227013,0.0122 -0.135202,0.0262 m 0.724958,-2.7e-4 c 0.09155,0.014 0.241036,0.014 0.332581,0 0.09155,-0.0138 0.01667,-0.0251 -0.166158,-0.0251 -0.183092,0 -0.257969,0.0114 -0.166423,0.0251 m 16.630914,-0.002 c 0.05821,0.0153 0.153459,0.0153 0.211667,0 0.05821,-0.0151 0.01058,-0.0275 -0.105833,-0.0275 -0.116417,0 -0.164042,0.0124 -0.105834,0.0275 m -11.763904,1.45335 c 0.107421,0.0135 0.297921,0.0138 0.423334,5.3e-4 0.125412,-0.013 0.03757,-0.0241 -0.195263,-0.0243 -0.232833,-2.7e-4 -0.335491,0.0106 -0.228071,0.0238 m -10.4912573,0.18256 c 0.191294,0.0119 0.504296,0.0119 0.695325,0 0.191294,-0.0119 0.03493,-0.022 -0.347662,-0.022 -0.382588,0 -0.538956,0.0101 -0.347663,0.022 m 5.2615033,0 c 0.19103,0.0119 0.504032,0.0119 0.695325,0 0.191294,-0.0119 0.03493,-0.022 -0.347662,-0.022 -0.382588,0 -0.538956,0.0101 -0.347663,0.022 m 14.093031,0 c 0.192617,0.0122 0.491861,0.0119 0.665163,-2.6e-4 0.173567,-0.0122 0.01614,-0.022 -0.349779,-0.0217 -0.365919,0 -0.507736,0.0101 -0.315384,0.022 m 2.570163,0 c 0.175683,0.0122 0.447675,0.0122 0.604573,-2.6e-4 0.156898,-0.0124 0.01323,-0.0225 -0.319352,-0.0225 -0.332582,2.6e-4 -0.461169,0.0103 -0.285221,0.0228 m 3.894667,5.3e-4 c 0.654579,0.01 1.743079,0.01 2.418819,0 0.67601,-0.01 0.14023,-0.0177 -1.190359,-0.0177 -1.330325,0 -1.883304,0.008 -1.22846,0.0177 m -1.313657,2.88793 c 0,1.5631598 0.0077,2.2113898 0.0172,1.4403898 0.0095,-0.7709898 0.0098,-2.0499898 0,-2.8424198 -0.0095,-0.79216 -0.0172,-0.16139 -0.0172,1.40203 M 5.3959837,3.3722129 c 0,0.21616 0.01085,0.30453 0.02434,0.19658 0.01349,-0.10821 0.01349,-0.28522 0,-0.39317 -0.01349,-0.10821 -0.02434,-0.0196 -0.02434,0.19659 m 23.5336283,2.38866 c 0,1.5300798 0.0079,2.1473498 0.01746,1.37186 0.0095,-0.77576 0.0095,-2.0275 0,-2.78209 -0.0095,-0.75433 -0.01746,-0.11986 -0.01746,1.41023 m -14.605794,-2.2225 -0.208492,0.22674 0.226748,-0.20822 c 0.211138,-0.19394 0.254794,-0.24527 0.208492,-0.24527 -0.01005,0 -0.112183,0.10213 -0.226748,0.22675 m 18.466858,1.57215 c 0.359305,0.0109 0.930805,0.0109 1.270005,0 0.33919,-0.0108 0.045,-0.0196 -0.65352,-0.0196 -0.698506,2.6e-4 -0.975789,0.009 -0.616485,0.0196 m -19.352683,0.62018 c 0,0.18283 0.01138,0.25771 0.02513,0.16643 0.01402,-0.0916 0.01402,-0.2413 0,-0.33285 -0.01376,-0.0913 -0.02513,-0.0164 -0.02513,0.16642 m 13.908616,0.15108 c 5.3e-4,0.16642 0.01217,0.22728 0.02619,0.13547 0.01402,-0.0921 0.01349,-0.22807 -7.94e-4,-0.30242 -0.01429,-0.0743 -0.02566,7.9e-4 -0.0254,0.16695 M 10.784218,7.3634527 c 0,0.64875 0.009,0.91413 0.01984,0.58975 0.01085,-0.32438 0.01085,-0.8548698 0,-1.1792498 -0.01085,-0.32437 -0.01984,-0.059 -0.01984,0.5894998 m 16.570325,0.0606 c 0,0.61542 0.009,0.86704 0.01984,0.55933 0.01111,-0.30772 0.01111,-0.81095 0,-1.1186598 -0.01085,-0.30771 -0.01984,-0.0561 -0.01984,0.5593298 m 5.644621,-0.9829298 c 0.307437,0.0109 0.810947,0.0109 1.118657,0 0.30771,-0.0111 0.0561,-0.0201 -0.55933,-0.0201 -0.615419,0 -0.867038,0.009 -0.559327,0.0201 M 32.57583,7.3481127 c 0.241036,0.0114 0.635521,0.0114 0.876821,0 0.24104,-0.0116 0.0439,-0.0209 -0.438406,-0.0209 -0.482335,0 -0.679715,0.009 -0.438415,0.0209 m 2.977881,0.66278 c -0.0164,0.33946 -0.008,0.59558 0.018,0.56912 0.0262,-0.0265 0.0397,-0.30401 0.0299,-0.61701 l -0.018,-0.56912 -0.0299,0.61701 m -24.681122,0.64003 c 0.02646,0.0259 0.345017,0.0394 0.708025,0.0299 l 0.659871,-0.0177 -0.707761,-0.0299 c -0.389202,-0.0164 -0.686329,-0.008 -0.660135,0.0177 m 12.329319,0.0265 c 0.108214,0.0132 0.284956,0.0132 0.39317,0 0.10795,-0.0135 0.01958,-0.0243 -0.196585,-0.0243 -0.216165,0 -0.3048,0.0108 -0.196585,0.0243 m 4.62862,0.001 c 0.192617,0.0119 0.491861,0.0119 0.665163,-2.7e-4 0.173567,-0.0122 0.01614,-0.0222 -0.349779,-0.022 -0.365919,0 -0.507736,0.01 -0.315384,0.0222 m -16.48116,1.26788 c 0.07514,0.0145 0.183886,0.014 0.241829,-10e-4 0.05768,-0.0151 -0.0037,-0.0267 -0.136789,-0.0262 -0.133086,8e-4 -0.180446,0.013 -0.10504,0.0275 m 3.174206,5.3e-4 c 0.09155,0.014 0.241036,0.014 0.332582,0 0.09154,-0.0138 0.01667,-0.0251 -0.166159,-0.0251 -0.183091,0 -0.257968,0.0114 -0.166423,0.0251 m 5.050896,5.3e-4 c 0.108744,0.0135 0.271992,0.0132 0.362744,-5.3e-4 0.09102,-0.0138 0.0021,-0.0249 -0.197644,-0.0246 -0.199496,5.3e-4 -0.273844,0.0116 -0.1651,0.0251 m 10.250488,-5.3e-4 c 0.09181,0.014 0.227806,0.0138 0.302418,-8e-4 0.07435,-0.0143 -0.0011,-0.0257 -0.167216,-0.0251 -0.166423,5.3e-4 -0.227277,0.0122 -0.135202,0.0259 m -7.616561,0.5011203 c 0,0.21616 0.01085,0.30453 0.02434,0.19632 0.01323,-0.10795 0.01323,-0.28496 0,-0.39291 -0.01349,-0.10821 -0.02434,-0.0198 -0.02434,0.19659 m 1.088496,0 c 0,0.21616 0.01085,0.30453 0.02434,0.19632 0.01349,-0.10795 0.01349,-0.28496 0,-0.39291 -0.01349,-0.10821 -0.02434,-0.0198 -0.02434,0.19659 m 4.773348,-0.15134 c 7.94e-4,0.13308 0.01323,0.18044 0.02778,0.10504 0.01429,-0.0751 0.01376,-0.18389 -0.0013,-0.24183 -0.01508,-0.0577 -0.02699,0.004 -0.02646,0.13679 m 1.401233,0.99801 c 0,0.68183 0.009,0.9607 0.01958,0.61965 0.01085,-0.34078 0.01085,-0.89879 0,-1.23957 -0.01058,-0.34105 -0.01958,-0.0622 -0.01958,0.61992 m -6.933141,-0.37915 c 0.142081,0.013 0.359833,0.0127 0.483658,-2.7e-4 0.123825,-0.013 0.0077,-0.0235 -0.258498,-0.0233 -0.266171,2.6e-4 -0.367506,0.0108 -0.22516,0.0236 m 4.354247,0.0606 c 0.142346,0.0127 0.359834,0.0124 0.483659,-5.3e-4 0.124089,-0.013 0.0077,-0.0233 -0.258498,-0.0233 -0.266171,2.7e-4 -0.367506,0.0111 -0.225161,0.0238 m 0.766234,0.61806 c -0.03175,0.0318 -0.275431,0.0669 -0.541338,0.0786 l -0.483658,0.0209 0.491596,0.0122 c 0.374385,0.009 0.509587,-0.01 0.566737,-0.0786 0.08308,-0.10002 0.05821,-0.12462 -0.03334,-0.0331 m -15.730537,0.54716 c 0,0.24924 0.01058,0.35137 0.02381,0.22675 0.01296,-0.12488 0.01296,-0.32888 0,-0.45376 -0.01323,-0.12462 -0.02381,-0.0225 -0.02381,0.22701 m 24.124707,-0.3212 c 0.0582,0.0151 0.15346,0.0151 0.21167,0 0.0582,-0.0153 0.0106,-0.0278 -0.10584,-0.0278 -0.11641,0 -0.16404,0.0124 -0.10583,0.0278 m -12.75662,0.35136 c 2.64e-4,0.1995 0.01138,0.27385 0.02487,0.1651 0.01349,-0.10847 0.01323,-0.27199 -5.29e-4,-0.36274 -0.01376,-0.091 -0.02487,-0.002 -0.02434,0.19764 m 0.907521,0.0302 c 0,0.21616 0.01111,0.3048 0.02461,0.19658 0.01323,-0.10821 0.01323,-0.28495 0,-0.39317 -0.01349,-0.10795 -0.02461,-0.0196 -0.02461,0.19659 M 6.1175157,11.941233 c 0.05821,0.0151 0.153459,0.0151 0.211667,0 0.05821,-0.0153 0.01058,-0.0278 -0.105833,-0.0278 -0.116417,0 -0.164042,0.0124 -0.105834,0.0278 m 16.0908993,0.32121 c 0,0.21616 0.01085,0.30453 0.02434,0.19658 0.01323,-0.10821 0.01323,-0.28522 0,-0.39317 -0.01349,-0.10821 -0.02434,-0.0196 -0.02434,0.19659 m 4.773348,-0.13679 c 0.191294,0.0119 0.504031,0.0119 0.695325,0 0.191294,-0.0119 0.03493,-0.022 -0.347662,-0.022 -0.382588,0 -0.538957,0.01 -0.347663,0.022 m 5.238485,0.5752 c 0.06218,0.0794 0.160603,0.10319 0.393171,0.095 l 0.310092,-0.0111 -0.300831,-0.023 c -0.165629,-0.0127 -0.342371,-0.0556 -0.393171,-0.095 -0.0807,-0.0627 -0.08176,-0.0585 -0.0093,0.0341 m -23.3359846,0.0452 -0.3325807,0.0407 0.3137957,0.0101 c 0.172773,0.005 0.330729,-0.0175 0.351367,-0.0508 0.02064,-0.0331 0.02884,-0.0561 0.01852,-0.0505 -0.01005,0.005 -0.168275,0.0283 -0.351102,0.0505 m 18.0218286,0 -1.118923,0.0344 1.100138,0.0132 c 0.682625,0.008 1.114425,-0.01 1.137708,-0.0476 0.02037,-0.0331 0.02884,-0.0545 0.01852,-0.0474 -0.01032,0.007 -0.522023,0.0286 -1.137444,0.0474 m -15.526543,0.0434 c 0.09207,0.014 0.228071,0.0135 0.302418,-8e-4 0.07435,-0.0143 -7.93e-4,-0.0257 -0.166952,-0.0251 -0.166423,2.6e-4 -0.227277,0.0122 -0.135466,0.0259 m 2.116666,0 c 0.09207,0.014 0.228071,0.0135 0.302419,-8e-4 0.07435,-0.0143 -7.94e-4,-0.0257 -0.166952,-0.0251 -0.166423,2.6e-4 -0.227277,0.0122 -0.135467,0.0259 m 2.236788,0 c 0.09155,0.0138 0.2413,0.0138 0.332846,0 0.09128,-0.0138 0.0164,-0.0251 -0.166423,-0.0251 -0.182827,0 -0.257704,0.0114 -0.166423,0.0251 m 2.81305,-5.3e-4 c 0.07514,0.0145 0.183885,0.014 0.241829,-0.001 0.05768,-0.0151 -0.0037,-0.027 -0.13679,-0.0262 -0.133085,5.3e-4 -0.180445,0.013 -0.105039,0.0275 m 3.083454,0 c 0.07488,0.0143 0.197379,0.0143 0.272256,0 0.07488,-0.0145 0.01349,-0.0262 -0.13626,-0.0262 -0.14949,0 -0.210873,0.0117 -0.135996,0.0262 m 1.965589,5.3e-4 c 0.09128,0.0138 0.241036,0.0138 0.332582,0 0.09155,-0.0138 0.01667,-0.0251 -0.166423,-0.0251 -0.182827,0 -0.257704,0.0114 -0.166159,0.0251 m 6.168496,0 c 0.09155,0.0138 0.241036,0.0138 0.332581,0 0.09155,-0.0138 0.01667,-0.0251 -0.166158,-0.0251 -0.183092,0 -0.257969,0.0114 -0.166423,0.0251"
       stroke="none"
       fill="#7c8486"
       fill-rule="evenodd"
       style="stroke-width:0.264583" />
  </g>
</svg>
